<svg height="144" viewBox="0 0 144 144" width="144" xmlns="http://www.w3.org/2000/svg" xmlns:xlink="http://www.w3.org/1999/xlink"><radialGradient id="a" cx="-84.965302" cy="811.16681" gradientTransform="matrix(1.2048396 0 0 1.1760272 171.29235 25.606366)" gradientUnits="userSpaceOnUse" r="41.916451"><stop offset="0" stop-color="#bb7414"/><stop offset=".5" stop-color="#fdfbf8"/><stop offset="1" stop-color="#eb8904"/></radialGradient><filter id="b" color-interpolation-filters="sRGB" height="1.14551" width="1.142521" x="-.071261" y="-.072755"><feGaussianBlur stdDeviation="2.9517974"/></filter><g transform="matrix(1.2305366 0 0 1.2305366 -16.598623 -1135.02688)"><path d="m72.569234 932.37199c.23433 1.52069-7.51351 2.19253-20.09581 8.8896-4.21866 2.25243-9.22247 5.44001-13.1935 9.85387l-.00001.00001c-3.00231 3.30742-5.55834 7.49076-7.11802 12.31482-1.56888 4.77874-2.1483 10.0836-2.06228 15.84186.18309 10.27127 4.43358 21.33565 12.59706 29.33195 7.5634 7.4606 18.39692 12.0344 29.33194 12.0188 10.9697.024 21.80056-4.5661 29.350246-12.0005 8.21226-8.0306 12.44228-19.11829 12.63673-29.35024.26803-11.70308-5.32435-21.77749-11.99891-27.7074-7.602316-6.86069-16.789146-9.67992-22.128176-10.99168-5.79319-1.42335-8.90074-1.61978-8.93801-2.27005-.0233-.40688 3.05285-1.3318 9.33722-.86955 5.82891.42876 16.01961 2.33838 25.487526 9.58563 8.32439 6.47102 15.65831 17.91832 15.92587 32.25305.0974 6.11469-1.00091 12.48088-3.35066 18.56816s6.55181 24.14828 1.64365 29.14728c-4.54673 4.6046-22.542966-3.9427-28.585906-1.3854-6.04293 2.5574-12.63527 3.9666-19.37958 3.9787-13.44671-.016-26.34632-5.5899-35.48108-14.8276-9.78537-9.9527-14.43288-23.17223-14.24939-35.48115.0859-6.42057 1.07359-12.56271 3.18628-18.20174 2.18004-5.75791 5.53322-10.57222 9.35773-14.27598l.00001-.00001c5.06778-4.86785 10.8291-7.92782 15.60452-9.87374 14.07055-5.75009 22.10186-4.68293 22.12255-4.54869z" filter="url(#b)" opacity=".887"/><path d="m69.497805 930.72914c.23433 1.52069-7.51351 2.19253-20.09581 8.8896-4.21866 2.25243-9.22247 5.44001-13.1935 9.85387l-.00001.00001c-3.00231 3.30742-5.55834 7.49076-7.11802 12.31482-1.56888 4.77874-2.1483 10.0836-2.06228 15.84186.18309 10.27127 4.43358 21.33567 12.59706 29.332 7.5634 7.4606 18.39692 12.0344 29.33194 12.0188 10.9697.024 21.80056-4.5662 29.35025-12.0005 8.212265-8.03068 12.442285-19.11834 12.636735-29.35029.26803-11.70308-5.32435-21.77749-11.998915-27.7074-7.60232-6.86069-16.78915-9.67992-22.12818-10.99168-5.79319-1.42335-8.90074-1.61978-8.93801-2.27005-.0233-.40688 3.05285-1.3318 9.33722-.86955 5.82891.42876 16.01961 2.33838 25.487535 9.58563 8.32439 6.47102 15.65831 17.91832 15.92587 32.25305.0974 6.11469-1.00091 12.48088-3.35066 18.56816-2.34975 6.08723 6.55181 24.14833 1.64365 29.14733-4.54673 4.6046-22.542975-3.9427-28.585915-1.3854-6.04293 2.5574-12.63527 3.9666-19.37958 3.9787-13.44671-.016-26.34632-5.5899-35.48108-14.8277-9.78537-9.9526-14.43288-23.17218-14.24939-35.4811.0859-6.42057 1.07359-12.56271 3.18628-18.20174 2.18004-5.75791 5.53322-10.57222 9.35773-14.27598l.00001-.00001c5.06778-4.86785 10.8291-7.92782 15.60452-9.87374 14.07055-5.75009 22.10186-4.68293 22.12255-4.54869z" fill="url(#a)"/></g></svg>