<svg height="161.067" viewBox="0 0 224 151" width="238.933" xmlns="http://www.w3.org/2000/svg" xmlns:xlink="http://www.w3.org/1999/xlink"><radialGradient id="a" cx="-84.965" cy="811.167" gradientTransform="matrix(1.20484 0 0 1.17603 214.364 11.178)" gradientUnits="userSpaceOnUse" r="41.916"><stop offset="0" stop-color="#bb7414"/><stop offset=".5" stop-color="#fdfbf8"/><stop offset="1" stop-color="#eb8904"/></radialGradient><radialGradient id="b" cx="117.069" cy="964.315" gradientTransform="matrix(.85382 0 0 .70572 12.694 285.308)" gradientUnits="userSpaceOnUse" r="123.902"><stop offset="0" stop-color="#fff" stop-opacity="0"/><stop offset=".5" stop-color="#263238" stop-opacity=".856"/><stop offset="1" stop-color="#263238"/></radialGradient><clipPath id="c"><path d="m113.666 189.758h1035.72v698.186h-1035.719z"/></clipPath><clipPath id="d"><path d="m0 901.362h224v151h-224z"/></clipPath><filter id="e" color-interpolation-filters="sRGB" height="1.146" width="1.143" x="-.071" y="-.073"><feGaussianBlur stdDeviation="2.952"/></filter><g clip-path="url(#c)" transform="matrix(.21627 0 0 .21627 -24.583 -41.04)"><g stroke="#fff" stroke-linejoin="round" stroke-miterlimit="3.999" stroke-width="1.631"><path d="m263.925 90.95-7.635-13.248 7.643-13.264 7.643-13.264 15.323.026 15.323.026 7.61 13.178c4.186 7.249 7.612 13.228 7.614 13.287 0 .06-3.42 6.036-7.602 13.282l-7.604 13.173-15.34.026-15.341.026z" fill="#c0c0c0"/><path d="m263.908 143.975-7.635-13.249 7.643-13.264 7.643-13.264 15.323.026 15.324.026 7.61 13.179c4.185 7.248 7.611 13.227 7.613 13.287 0 .06-3.42 6.036-7.602 13.281l-7.604 13.174-15.34.026-15.34.026z" fill="#eddfc9"/><path d="m263.89 197-7.634-13.249 7.643-13.264 7.643-13.264 15.323.026 15.324.026 7.61 13.179c4.185 7.248 7.611 13.227 7.613 13.286 0 .06-3.42 6.036-7.602 13.282l-7.604 13.173-15.34.026-15.34.027-7.635-13.249z" fill="#e2cca7"/><path d="m263.874 250.024-7.634-13.248 7.642-13.264 7.643-13.264 15.324.026 15.323.026 7.61 13.178c4.186 7.248 7.611 13.227 7.613 13.287 0 .06-3.42 6.036-7.601 13.281l-7.605 13.174-15.34.026-15.34.026z" fill="#eddfc9"/><path d="m263.857 303.049-7.634-13.249 7.642-13.264 7.643-13.264 15.324.026 15.323.026 7.61 13.179c4.186 7.248 7.612 13.227 7.613 13.287 0 .059-3.419 6.036-7.601 13.281l-7.604 13.174-15.341.026-15.34.026z" fill="#b0958e"/><path d="m263.875 355.969-7.635-13.248 7.643-13.265 7.643-13.264 15.323.026 15.324.027 7.61 13.178c4.185 7.248 7.611 13.227 7.613 13.287 0 .06-3.42 6.036-7.602 13.281l-7.604 13.174-15.34.026-15.34.026z" fill="#b0958e"/><path d="m217.943 382.445-7.635-13.248 7.643-13.264 7.643-13.265 15.323.027 15.323.026 7.61 13.178c4.186 7.248 7.612 13.227 7.614 13.287 0 .06-3.42 6.036-7.602 13.281l-7.604 13.174-15.34.026-15.341.026z" fill="#eddfc9"/><path d="m172.01 408.92-7.634-13.247 7.643-13.264 7.643-13.265 15.323.027 15.323.026 7.61 13.178c4.186 7.248 7.612 13.227 7.613 13.287 0 .06-3.419 6.036-7.601 13.281l-7.604 13.174-15.34.026-15.341.026-7.635-13.248z" fill="#b0958e"/><path d="m126.078 435.397-7.634-13.248 7.642-13.264 7.643-13.265 15.324.027 15.323.026 7.61 13.178c4.186 7.248 7.612 13.227 7.613 13.287 0 .06-3.42 6.036-7.601 13.281l-7.604 13.174-15.341.026-15.34.026z" fill="#b0958e"/><path d="m126.093 170.483-7.634-13.249 7.643-13.264 7.643-13.264 15.323.026 15.323.026 7.61 13.179c4.186 7.248 7.612 13.227 7.613 13.286 0 .06-3.419 6.037-7.601 13.282l-7.604 13.174-15.34.026-15.341.026z" fill="#eddfc9"/><path d="m126.11 117.458-7.634-13.248 7.643-13.264 7.642-13.265 15.324.027 15.323.026 7.61 13.178c4.186 7.248 7.612 13.227 7.613 13.287 0 .06-3.419 6.036-7.601 13.281l-7.604 13.174-15.34.026-15.341.026z" fill="#c0c0c0"/><path d="m172.06 143.902-7.634-13.248 7.643-13.264 7.642-13.264 15.324.026 15.323.026 7.61 13.178c4.186 7.249 7.612 13.228 7.613 13.287 0 .06-3.419 6.036-7.601 13.282l-7.604 13.173-15.341.026-15.34.026zm-45.983 185.55-7.634-13.248 7.643-13.264 7.643-13.264 15.323.026 15.323.026 7.61 13.178c4.186 7.249 7.612 13.228 7.613 13.287 0 .06-3.419 6.036-7.601 13.282l-7.604 13.173-15.34.026-15.341.026zm.017-53.025-7.634-13.248 7.642-13.264 7.643-13.264 15.324.026 15.323.026 7.61 13.179c4.186 7.248 7.612 13.227 7.613 13.286 0 .06-3.419 6.036-7.601 13.282l-7.604 13.173-15.341.027-15.34.026-7.635-13.248z" fill="#eddfc9"/><path d="m172.044 302.872-7.634-13.249 7.642-13.264 7.643-13.264 15.324.026 15.323.026 7.61 13.179c4.186 7.248 7.612 13.227 7.613 13.287 0 .06-3.42 6.036-7.601 13.281l-7.604 13.174-15.341.026-15.34.026z" fill="#eddfc9"/><path d="m172.026 249.951-7.634-13.248 7.643-13.264 7.643-13.264 15.322.025 15.323.026 7.61 13.179c4.186 7.248 7.612 13.227 7.613 13.286 0 .06-3.419 6.036-7.601 13.282l-7.604 13.173-15.34.026-15.341.027-7.635-13.249zm-45.915-26.548-7.634-13.248 7.642-13.265 7.643-13.264 15.324.026 15.323.027 7.61 13.178c4.186 7.248 7.611 13.227 7.613 13.287 0 .06-3.42 6.036-7.601 13.281l-7.605 13.174-15.34.026-15.34.026z" fill="#eddfc9"/><path d="m126.095 382.372-7.635-13.248 7.643-13.264 7.643-13.264 15.324.026 15.323.026 7.61 13.179c4.186 7.248 7.611 13.227 7.613 13.286 0 .06-3.42 6.036-7.601 13.282l-7.605 13.173-15.34.026-15.34.027z" fill="#b0958e"/><path d="m172.027 355.896-7.634-13.248 7.643-13.264 7.642-13.264 15.324.026 15.323.026 7.61 13.179c4.186 7.248 7.612 13.227 7.613 13.286 0 .06-3.419 6.036-7.601 13.282l-7.604 13.173-15.34.026-15.341.026z" fill="#eddfc9"/><path d="m217.925 329.525-7.635-13.249 7.643-13.264 7.643-13.264 15.323.026 15.324.026 7.61 13.179c4.185 7.248 7.611 13.227 7.613 13.287 0 .059-3.42 6.036-7.602 13.281l-7.604 13.174-15.34.026-15.34.026zm.017-53.025-7.635-13.248 7.643-13.264 7.643-13.264 15.323.026 15.324.026 7.61 13.178c4.185 7.249 7.611 13.227 7.613 13.287 0 .06-3.42 6.036-7.602 13.281l-7.604 13.174-15.34.026-15.34.026z" fill="#eddfc9"/><path d="m217.959 223.475-7.635-13.248 7.643-13.264 7.643-13.264 15.323.026 15.323.026 7.61 13.179c4.186 7.248 7.612 13.227 7.614 13.286 0 .06-3.42 6.036-7.602 13.282l-7.604 13.173-15.34.026-15.341.027zm-45.916-26.548-7.634-13.248 7.643-13.265 7.643-13.264 15.323.026 15.323.027 7.61 13.178c4.186 7.248 7.612 13.227 7.613 13.287 0 .06-3.419 6.036-7.601 13.281l-7.604 13.174-15.34.026-15.341.026z" fill="#eddfc9"/><path d="m217.94 170.555-7.634-13.248 7.643-13.264 7.643-13.264 15.323.026 15.324.026 7.61 13.178c4.186 7.249 7.611 13.228 7.613 13.287 0 .06-3.42 6.036-7.601 13.282l-7.605 13.173-15.34.026-15.34.026-7.635-13.248zm.052-53.129-7.634-13.248 7.642-13.264 7.643-13.264 15.323.026 15.323.026 7.61 13.178c4.186 7.249 7.612 13.228 7.613 13.287 0 .06-3.419 6.036-7.601 13.282l-7.604 13.173-15.34.026-15.341.026-7.635-13.248z" fill="#eddfc9"/><path d="m309.807 329.493-7.634-13.248 7.642-13.265 7.643-13.264 15.324.026 15.323.027 7.61 13.178c4.186 7.248 7.612 13.227 7.613 13.287 0 .06-3.42 6.036-7.601 13.281l-7.604 13.174-15.341.026-15.34.026zm.017-53.025-7.635-13.248 7.643-13.264 7.643-13.264 15.323.026 15.324.026 7.61 13.179c4.186 7.248 7.611 13.227 7.613 13.286 0 .06-3.42 6.036-7.602 13.282l-7.604 13.173-15.34.026-15.34.026z" fill="#b0958e"/><path d="m309.84 223.444-7.634-13.249 7.643-13.264 7.643-13.264 15.323.026 15.324.026 7.61 13.179c4.185 7.248 7.611 13.227 7.613 13.286 0 .06-3.42 6.037-7.602 13.282l-7.604 13.174-15.34.026-15.34.026-7.635-13.248zm.018-53.025-7.635-13.248 7.643-13.264 7.643-13.265 15.323.027 15.323.026 7.61 13.178c4.186 7.248 7.612 13.227 7.614 13.287 0 .06-3.42 6.036-7.602 13.281l-7.604 13.174-15.34.026-15.34.026z" fill="#eddfc9"/><path d="m309.875 117.394-7.635-13.248 7.643-13.264 7.643-13.264 15.323.026 15.323.026 7.61 13.179c4.186 7.248 7.612 13.227 7.614 13.286 0 .06-3.42 6.036-7.602 13.282l-7.604 13.173-15.34.026-15.341.026z" fill="#eddfc9"/><path d="m355.756 249.992-7.634-13.248 7.643-13.264 7.642-13.264 15.324.026 15.323.026 7.61 13.178c4.186 7.249 7.612 13.228 7.613 13.287 0 .06-3.419 6.036-7.601 13.282l-7.604 13.173-15.34.026-15.341.026z" fill="#f56045"/><path d="m355.756 197.02-7.635-13.249 7.643-13.264 7.643-13.264 15.323.026 15.324.026 7.61 13.18c4.185 7.247 7.611 13.226 7.613 13.286 0 .06-3.42 6.036-7.602 13.281l-7.604 13.174-15.34.026-15.34.026z" fill="#eddfc9"/><path d="m401.664 223.446-7.634-13.248 7.643-13.264 7.643-13.264 15.323.026 15.323.026 7.61 13.179c4.186 7.248 7.612 13.227 7.613 13.286 0 .06-3.419 6.036-7.601 13.282l-7.604 13.173-15.34.027-15.341.026-7.635-13.248z" fill="#f56045"/><path d="m401.646 170.526-7.634-13.248 7.643-13.264 7.643-13.264 15.323.026 15.323.026 7.61 13.178c4.186 7.249 7.612 13.228 7.614 13.287 0 .06-3.42 6.036-7.602 13.282l-7.604 13.173-15.34.026-15.341.026z" fill="#eddfc9"/><path d="m447.596 196.97-7.634-13.248 7.643-13.264 7.643-13.264 15.323.026 15.323.026 7.61 13.179c4.186 7.248 7.612 13.227 7.613 13.286 0 .06-3.419 6.036-7.601 13.282l-7.604 13.173-15.34.027-15.341.026z" fill="#f56045"/><path d="m447.613 143.946-7.634-13.248 7.643-13.265 7.643-13.264 15.323.026 15.323.027 7.61 13.178c4.186 7.248 7.612 13.227 7.613 13.287 0 .06-3.419 6.036-7.601 13.281l-7.604 13.174-15.34.026-15.341.026z" fill="#f56045"/><path d="m493.563 170.39-7.634-13.248 7.643-13.264 7.643-13.264 15.323.026 15.323.026 7.61 13.178c4.186 7.249 7.612 13.227 7.613 13.287 0 .06-3.419 6.036-7.601 13.281l-7.604 13.174-15.34.026-15.341.026z" fill="#f56045"/><path d="m493.546 117.47-7.635-13.248 7.643-13.265 7.643-13.264 15.323.026 15.323.026 7.61 13.179c4.186 7.248 7.612 13.227 7.614 13.287 0 .06-3.42 6.036-7.602 13.281l-7.604 13.174-15.34.026-15.341.026z" fill="#f56045"/><path d="m355.79 143.943-7.635-13.248 7.643-13.264 7.643-13.265 15.324.027 15.323.026 7.61 13.178c4.186 7.248 7.611 13.227 7.613 13.287 0 .06-3.42 6.036-7.601 13.281l-7.605 13.174-15.34.026-15.34.026z" fill="#eddfc9"/><path d="m355.79 90.97-7.635-13.248 7.643-13.264 7.643-13.264 15.323.026 15.323.026 7.61 13.179c4.186 7.248 7.612 13.227 7.614 13.286 0 .06-3.42 6.037-7.602 13.282l-7.604 13.173-15.34.027-15.341.026-7.634-13.248z" fill="#c0c0c0"/><path d="m401.698 117.397-7.635-13.248 7.643-13.264 7.643-13.264 15.324.026 15.323.026 7.61 13.178c4.186 7.249 7.611 13.228 7.613 13.287 0 .06-3.42 6.036-7.601 13.282l-7.605 13.173-15.34.026-15.34.026z" fill="#f56045"/><path d="m447.63 90.921-7.634-13.248 7.643-13.264 7.643-13.264 15.323.026 15.323.026 7.61 13.178c4.186 7.249 7.612 13.228 7.613 13.287 0 .06-3.419 6.036-7.601 13.282l-7.604 13.173-15.34.026-15.341.026z" fill="#c0c0c0"/><path d="m769.227 117.27-7.635-13.248 7.643-13.264 7.643-13.264 15.323.026 15.324.026 7.61 13.178c4.185 7.248 7.611 13.227 7.613 13.287 0 .06-3.42 6.036-7.602 13.281l-7.604 13.174-15.34.026-15.34.026zm-.017 53.025-7.635-13.249 7.643-13.264 7.643-13.264 15.323.026 15.324.026 7.61 13.179c4.186 7.248 7.611 13.227 7.613 13.287 0 .059-3.42 6.036-7.602 13.281l-7.604 13.174-15.34.026-15.34.026z" fill="#bf958a"/><path d="m769.193 223.32-7.634-13.249 7.642-13.264 7.643-13.264 15.324.026 15.323.026 7.61 13.179c4.186 7.248 7.611 13.227 7.613 13.286 0 .06-3.42 6.036-7.601 13.282l-7.605 13.173-15.34.026-15.34.026-7.635-13.248zm-.017 53.024-7.634-13.248 7.643-13.265 7.642-13.264 15.324.026 15.323.027 7.61 13.178c4.186 7.248 7.612 13.227 7.613 13.287 0 .06-3.419 6.036-7.601 13.281l-7.604 13.174-15.34.026-15.341.026z" fill="#747474"/><path d="m769.194 329.264-7.635-13.248 7.643-13.264 7.643-13.264 15.323.026 15.324.026 7.61 13.178c4.185 7.249 7.611 13.228 7.613 13.287 0 .06-3.42 6.036-7.602 13.282l-7.604 13.173-15.34.026-15.34.026z" fill="#747474"/><path d="m723.262 355.74-7.635-13.248 7.643-13.264 7.643-13.264 15.323.026 15.323.026 7.61 13.178c4.186 7.249 7.612 13.228 7.614 13.287 0 .06-3.42 6.036-7.602 13.282l-7.604 13.173-15.34.026-15.341.026z" fill="#747474"/><path d="m677.33 382.216-7.635-13.248 7.643-13.264 7.643-13.264 15.323.026 15.323.026 7.61 13.178c4.186 7.249 7.612 13.228 7.613 13.287 0 .06-3.419 6.036-7.601 13.282l-7.604 13.173-15.34.026-15.341.026-7.635-13.248z" fill="#747474"/><path d="m631.397 408.692-7.634-13.248 7.642-13.264 7.643-13.264 15.324.026 15.323.026 7.61 13.179c4.186 7.248 7.612 13.227 7.613 13.286 0 .06-3.42 6.036-7.601 13.282l-7.604 13.173-15.341.026-15.34.026z" fill="#ecaa51"/><path d="m585.465 435.168-7.635-13.248 7.643-13.264 7.643-13.264 15.323.026 15.324.026 7.61 13.179c4.185 7.248 7.611 13.227 7.613 13.286 0 .06-3.42 6.036-7.602 13.282l-7.604 13.173-15.34.026-15.34.026z" fill="#ec7da7"/><path d="m539.515 408.724-7.635-13.248 7.643-13.264 7.643-13.264 15.323.026 15.324.026 7.61 13.178c4.186 7.249 7.611 13.228 7.613 13.287 0 .06-3.42 6.036-7.601 13.282l-7.605 13.173-15.34.026-15.34.026z" fill="#ec7da7"/><path d="m493.565 382.28-7.634-13.248 7.642-13.265 7.643-13.264 15.324.026 15.323.027 7.61 13.178c4.186 7.248 7.611 13.227 7.613 13.287 0 .06-3.42 6.036-7.601 13.281l-7.605 13.174-15.34.026-15.34.026z" fill="#ec7da7"/><path d="m447.615 355.835-7.634-13.248 7.642-13.264 7.643-13.264 15.324.026 15.323.026 7.61 13.179c4.186 7.248 7.611 13.227 7.613 13.286 0 .06-3.42 6.037-7.601 13.282l-7.605 13.174-15.34.026-15.34.026-7.635-13.248z" fill="#ec7da7"/><path d="m401.665 329.391-7.634-13.248 7.642-13.264 7.643-13.264 15.324.026 15.323.026 7.61 13.179c4.186 7.248 7.612 13.227 7.613 13.286 0 .06-3.42 6.036-7.601 13.282l-7.604 13.173-15.341.026-15.34.027z" fill="#bb260b"/><path d="m355.715 302.947-7.634-13.248 7.642-13.264 7.643-13.264 15.324.026 15.323.026 7.61 13.178c4.186 7.249 7.612 13.228 7.613 13.287 0 .06-3.42 6.036-7.601 13.282l-7.604 13.173-15.341.026-15.34.026z" fill="#f56045"/><path d="m401.647 276.471-7.634-13.248 7.643-13.264 7.643-13.264 15.323.026 15.323.026 7.61 13.178c4.186 7.249 7.612 13.228 7.613 13.287 0 .06-3.419 6.036-7.601 13.282l-7.604 13.173-15.34.026-15.341.026z" fill="#f56045"/><path d="m539.512 90.89-7.634-13.249 7.643-13.264 7.643-13.264 15.323.026 15.323.026 7.61 13.179c4.186 7.248 7.612 13.227 7.613 13.286 0 .06-3.419 6.036-7.601 13.282l-7.604 13.173-15.34.026-15.341.027-7.635-13.249z" fill="#c0c0c0"/><path d="m631.412 143.778-7.634-13.248 7.643-13.265 7.643-13.264 15.323.026 15.323.027 7.61 13.178c4.186 7.248 7.612 13.227 7.613 13.287 0 .06-3.419 6.036-7.601 13.281l-7.604 13.174-15.34.026-15.341.026z" fill="#f56045"/><path d="m631.43 90.753-7.635-13.248 7.643-13.264 7.643-13.264 15.323.026 15.323.026 7.61 13.178c4.186 7.249 7.612 13.228 7.613 13.287 0 .06-3.419 6.036-7.601 13.282l-7.604 13.173-15.34.026-15.341.026-7.635-13.248z" fill="#c0c0c0"/><path d="m677.38 117.197-7.635-13.248 7.643-13.264 7.642-13.264 15.324.026 15.323.026 7.61 13.179c4.186 7.248 7.612 13.227 7.613 13.286 0 .06-3.419 6.036-7.601 13.282l-7.604 13.173-15.34.026-15.341.027-7.635-13.249zm-137.884 132.662-7.634-13.248 7.643-13.264 7.643-13.265 15.323.026 15.323.027 7.61 13.178c4.186 7.248 7.612 13.227 7.613 13.287 0 .06-3.419 6.036-7.601 13.281l-7.604 13.174-15.34.026-15.341.026z" fill="#f56045"/><path d="m539.513 196.834-7.634-13.248 7.643-13.264 7.642-13.264 15.324.026 15.323.026 7.61 13.179c4.186 7.248 7.612 13.227 7.613 13.286 0 .06-3.419 6.036-7.601 13.282l-7.604 13.173-15.34.026-15.341.026z" fill="#f56045"/><path d="m585.463 223.278-7.634-13.248 7.643-13.264 7.643-13.264 15.323.026 15.323.026 7.61 13.179c4.186 7.248 7.612 13.227 7.613 13.286 0 .06-3.419 6.037-7.601 13.282l-7.604 13.173-15.34.027-15.341.026-7.635-13.248z" fill="#f56045"/><path d="m585.445 170.358-7.634-13.248 7.643-13.264 7.643-13.264 15.323.026 15.323.026 7.61 13.179c4.186 7.248 7.612 13.227 7.614 13.286 0 .06-3.42 6.036-7.602 13.282l-7.604 13.173-15.34.026-15.341.026zm-45.915-26.548-7.634-13.249 7.642-13.264 7.643-13.264 15.324.026 15.323.026 7.61 13.179c4.186 7.248 7.612 13.227 7.613 13.287 0 .059-3.419 6.036-7.601 13.281l-7.604 13.174-15.341.026-15.34.026z" fill="#f56045"/><path d="m631.396 302.747-7.634-13.248 7.643-13.264 7.643-13.264 15.323.026 15.323.026 7.61 13.179c4.186 7.248 7.612 13.227 7.613 13.286 0 .06-3.419 6.036-7.601 13.282l-7.604 13.173-15.34.026-15.341.027z" fill="#df2c6e"/><path d="m631.413 249.723-7.634-13.249 7.643-13.264 7.642-13.264 15.324.026 15.323.026 7.61 13.179c4.186 7.248 7.612 13.227 7.613 13.287 0 .06-3.419 6.036-7.601 13.281l-7.604 13.174-15.34.026-15.341.026z" fill="#ec7da7"/><path d="m677.363 276.167-7.634-13.248 7.642-13.264 7.643-13.265 15.324.027 15.323.026 7.61 13.178c4.186 7.248 7.612 13.227 7.613 13.287 0 .06-3.419 6.036-7.601 13.281l-7.604 13.174-15.341.026-15.34.026z" fill="#ec7da7"/><path d="m677.345 223.247-7.634-13.249 7.643-13.264 7.643-13.264 15.323.026 15.323.026 7.61 13.179c4.186 7.248 7.612 13.227 7.613 13.287 0 .06-3.419 6.036-7.601 13.281l-7.604 13.174-15.34.026-15.341.026z" fill="#ec7da7"/><path d="m631.43 196.698-7.634-13.248 7.642-13.264 7.643-13.264 15.324.026 15.323.026 7.61 13.178c4.186 7.249 7.611 13.228 7.613 13.287 0 .06-3.42 6.036-7.601 13.282l-7.604 13.173-15.341.026-15.34.026zm-45.933-79.468-7.634-13.249 7.642-13.264 7.643-13.264 15.324.026 15.323.026 7.61 13.178c4.186 7.249 7.611 13.228 7.613 13.287 0 .06-3.42 6.036-7.601 13.282l-7.605 13.173-15.34.026-15.34.026-7.635-13.248zm-91.951 106.185-7.634-13.249 7.643-13.264 7.643-13.264 15.323.026 15.323.026 7.61 13.179c4.186 7.248 7.612 13.227 7.613 13.287 0 .06-3.419 6.036-7.601 13.281l-7.604 13.174-15.34.026-15.341.026zm-45.966 26.58-7.635-13.248 7.643-13.264 7.643-13.264 15.323.026 15.323.026 7.61 13.178c4.186 7.249 7.612 13.227 7.614 13.287 0 .06-3.42 6.036-7.602 13.281l-7.604 13.174-15.34.026-15.341.026z" fill="#f56045"/><path d="m447.597 302.915-7.634-13.248 7.643-13.264 7.643-13.264 15.323.026 15.323.026 7.61 13.179c4.186 7.248 7.612 13.227 7.613 13.286 0 .06-3.419 6.036-7.601 13.282l-7.604 13.173-15.34.026-15.341.026zm45.967-26.58-7.634-13.248 7.642-13.264 7.643-13.265 15.324.027 15.323.026 7.61 13.178c4.186 7.248 7.612 13.227 7.613 13.287 0 .06-3.42 6.036-7.601 13.281l-7.604 13.174-15.341.026-15.34.026z" fill="#f56045"/><path d="m493.582 329.255-7.635-13.248 7.643-13.264 7.643-13.264 15.323.026 15.324.026 7.61 13.178c4.185 7.249 7.611 13.228 7.613 13.287 0 .06-3.42 6.036-7.602 13.282l-7.604 13.173-15.34.026-15.34.026z" fill="#ec7da7"/><path d="m539.514 302.78-7.634-13.25 7.642-13.263 7.643-13.264 15.324.026 15.323.026 7.61 13.178c4.186 7.249 7.612 13.228 7.613 13.287 0 .06-3.42 6.036-7.601 13.282l-7.604 13.173-15.341.026-15.34.026-7.635-13.248z" fill="#ec7da7"/><path d="m539.497 355.804-7.634-13.249 7.643-13.264 7.643-13.264 15.323.026 15.323.026 7.61 13.179c4.186 7.248 7.612 13.227 7.613 13.287 0 .06-3.419 6.036-7.601 13.281l-7.604 13.174-15.34.026-15.341.026zm45.949-79.501-7.634-13.248 7.643-13.264 7.643-13.264 15.323.026 15.323.026 7.61 13.178c4.186 7.249 7.612 13.228 7.613 13.287 0 .06-3.419 6.036-7.601 13.282l-7.604 13.173-15.34.026-15.341.026z" fill="#ec7da7"/><path d="m585.43 329.328-7.635-13.249 7.643-13.264 7.643-13.264 15.323.026 15.323.026 7.61 13.179c4.186 7.248 7.612 13.227 7.613 13.287 0 .06-3.419 6.036-7.601 13.281l-7.604 13.174-15.34.026-15.341.026-7.635-13.248z" fill="#ec7da7"/><path d="m585.447 382.248-7.634-13.248 7.643-13.264 7.642-13.264 15.324.026 15.323.026 7.61 13.178c4.186 7.248 7.612 13.227 7.613 13.287 0 .06-3.419 6.036-7.601 13.281l-7.604 13.174-15.34.026-15.341.026z" fill="#ec7da7"/><path d="m631.414 355.668-7.634-13.249 7.642-13.264 7.643-13.264 15.324.026 15.323.026 7.61 13.179c4.186 7.248 7.611 13.227 7.613 13.286 0 .06-3.42 6.037-7.601 13.282l-7.605 13.174-15.34.026-15.34.026z" fill="#747474"/><path d="m677.346 329.192-7.634-13.249 7.643-13.264 7.643-13.264 15.323.026 15.323.026 7.61 13.179c4.186 7.248 7.612 13.227 7.613 13.286 0 .06-3.419 6.037-7.601 13.282l-7.604 13.174-15.34.026-15.341.026z" fill="#ec7da7"/><path d="m723.244 302.82-7.635-13.248 7.643-13.264 7.643-13.265 15.323.027 15.324.026 7.61 13.178c4.186 7.248 7.611 13.227 7.613 13.287 0 .06-3.42 6.036-7.602 13.281l-7.604 13.174-15.34.026-15.34.026zm.016-53.025-7.634-13.248 7.643-13.264 7.643-13.264 15.323.026 15.324.026 7.61 13.179c4.185 7.248 7.611 13.227 7.613 13.286 0 .06-3.42 6.036-7.602 13.282l-7.604 13.173-15.34.026-15.34.026-7.635-13.248z" fill="#747474"/><path d="m723.278 196.77-7.635-13.248 7.643-13.264 7.643-13.264 15.323.026 15.323.026 7.61 13.179c4.186 7.248 7.612 13.227 7.614 13.287 0 .06-3.42 6.036-7.602 13.281l-7.604 13.174-15.34.026-15.34.026-7.635-13.248zm-45.916-26.548-7.634-13.248 7.643-13.264 7.643-13.264 15.323.026 15.323.026 7.61 13.178c4.186 7.249 7.612 13.228 7.613 13.287 0 .06-3.419 6.036-7.601 13.282l-7.604 13.173-15.34.026-15.341.026z" fill="#f56045"/><path d="m723.26 143.85-7.635-13.248 7.643-13.264 7.643-13.264 15.324.026 15.323.026 7.61 13.179c4.186 7.248 7.611 13.227 7.613 13.286 0 .06-3.42 6.036-7.601 13.282l-7.605 13.173-15.34.026-15.34.027z" fill="#bf958a"/><path d="m723.311 90.721-7.634-13.248 7.643-13.264 7.643-13.264 15.323.026 15.323.026 7.61 13.179c4.186 7.248 7.612 13.227 7.613 13.286 0 .06-3.419 6.036-7.601 13.282l-7.604 13.173-15.34.026-15.341.027z" fill="#c0c0c0"/><path d="m815.126 302.788-7.634-13.248 7.642-13.264 7.643-13.264 15.324.026 15.323.026 7.61 13.178c4.186 7.249 7.612 13.228 7.613 13.287 0 .06-3.42 6.036-7.601 13.282l-7.605 13.173-15.34.026-15.34.026zm.017-53.025-7.635-13.248 7.643-13.264 7.643-13.264 15.323.026 15.324.026 7.61 13.179c4.185 7.248 7.611 13.227 7.613 13.286 0 .06-3.42 6.037-7.601 13.282l-7.605 13.173-15.34.027-15.34.026-7.635-13.248z" fill="#747474"/><path d="m815.16 196.739-7.635-13.248 7.643-13.265 7.643-13.264 15.323.026 15.324.027 7.61 13.178c4.185 7.248 7.611 13.227 7.613 13.287 0 .06-3.42 6.036-7.602 13.281l-7.604 13.174-15.34.026-15.34.026zm.017-53.025-7.635-13.248 7.643-13.264 7.643-13.264 15.323.026 15.323.026 7.61 13.179c4.186 7.248 7.612 13.227 7.614 13.286 0 .06-3.42 6.036-7.602 13.282l-7.604 13.173-15.34.026-15.34.026z" fill="#bf958a"/><path d="m815.194 90.69-7.635-13.249 7.643-13.264 7.643-13.264 15.323.026 15.323.026 7.61 13.179c4.186 7.248 7.612 13.227 7.614 13.286 0 .06-3.42 6.037-7.602 13.282l-7.604 13.174-15.34.026-15.341.026-7.635-13.248z" fill="#c0c0c0"/><path d="m126.087 700.381-7.634-13.248 7.642-13.264 7.643-13.264 15.324.026 15.323.026 7.61 13.178c4.186 7.249 7.611 13.228 7.613 13.287 0 .06-3.42 6.036-7.601 13.282l-7.605 13.173-15.34.026-15.34.026z" fill="#c2e813"/><path d="m126.087 647.409-7.635-13.249 7.643-13.264 7.643-13.264 15.323.026 15.323.026 7.61 13.179c4.186 7.248 7.612 13.227 7.614 13.287 0 .059-3.42 6.036-7.602 13.281l-7.604 13.174-15.34.026-15.34.026z" fill="#c2e813"/><path d="m171.995 673.835-7.634-13.248 7.642-13.264 7.643-13.264 15.324.026 15.323.026 7.61 13.179c4.186 7.248 7.612 13.227 7.613 13.286 0 .06-3.42 6.036-7.601 13.282l-7.604 13.173-15.341.026-15.34.026z" fill="#c2e813"/><path d="m171.977 620.915-7.634-13.248 7.643-13.264 7.643-13.264 15.323.026 15.323.026 7.61 13.178c4.186 7.249 7.612 13.228 7.613 13.287 0 .06-3.419 6.036-7.601 13.282l-7.604 13.173-15.34.026-15.341.026z" fill="#c2e813"/><path d="m217.927 647.36-7.634-13.249 7.643-13.264 7.643-13.264 15.323.026 15.323.026 7.61 13.179c4.186 7.248 7.612 13.227 7.613 13.286 0 .06-3.419 6.036-7.601 13.282l-7.604 13.173-15.34.026-15.341.026-7.635-13.248z" fill="#c2e813"/><path d="m217.944 594.335-7.634-13.249 7.643-13.264 7.642-13.264 15.324.026 15.323.026 7.61 13.179c4.186 7.248 7.612 13.227 7.613 13.287 0 .06-3.419 6.036-7.601 13.281l-7.604 13.174-15.34.026-15.341.026z" fill="#b0958e"/><path d="m263.894 620.779-7.634-13.248 7.642-13.264 7.643-13.265 15.324.027 15.323.026 7.61 13.178c4.186 7.248 7.612 13.227 7.613 13.287 0 .06-3.419 6.036-7.601 13.281l-7.604 13.174-15.341.026-15.34.026z" fill="#c2e813"/><path d="m263.876 567.859-7.634-13.249 7.643-13.264 7.643-13.264 15.323.026 15.323.026 7.61 13.179c4.186 7.248 7.612 13.227 7.613 13.287 0 .059-3.419 6.036-7.601 13.281l-7.604 13.174-15.34.026-15.341.026z" fill="#c2e813"/><path d="m126.12 594.332-7.634-13.248 7.643-13.265 7.643-13.264 15.323.026 15.324.027 7.61 13.178c4.185 7.248 7.611 13.227 7.613 13.287 0 .06-3.42 6.036-7.602 13.281l-7.604 13.174-15.34.026-15.34.026-7.635-13.248z" fill="#b0958e"/><path d="m126.12 541.36-7.634-13.249 7.643-13.264 7.643-13.264 15.323.026 15.323.026 7.61 13.179c4.186 7.248 7.612 13.227 7.613 13.286 0 .06-3.419 6.036-7.601 13.282l-7.604 13.173-15.34.026-15.341.027-7.635-13.249z" fill="#b0958e"/><path d="m172.029 567.786-7.635-13.248 7.643-13.264 7.643-13.264 15.323.026 15.324.026 7.61 13.178c4.185 7.249 7.611 13.228 7.613 13.287 0 .06-3.42 6.036-7.602 13.282l-7.604 13.173-15.34.026-15.34.026z" fill="#b0958e"/><path d="m172.011 514.866-7.634-13.248 7.642-13.265 7.643-13.264 15.324.026 15.323.027 7.61 13.178c4.186 7.248 7.612 13.227 7.613 13.287 0 .06-3.419 6.036-7.601 13.281l-7.604 13.174-15.341.026-15.34.026z" fill="#b0958e"/><path d="m217.961 541.31-7.634-13.248 7.642-13.264 7.643-13.264 15.324.026 15.323.026 7.61 13.178c4.186 7.249 7.612 13.227 7.613 13.287 0 .06-3.42 6.036-7.601 13.281l-7.604 13.174-15.341.026-15.34.026zm.017-53.025-7.635-13.248 7.643-13.264 7.643-13.264 15.324.026 15.323.026 7.61 13.179c4.186 7.248 7.611 13.227 7.613 13.286 0 .06-3.42 6.036-7.601 13.282l-7.605 13.173-15.34.026-15.34.027z" fill="#b0958e"/><path d="m263.928 514.73-7.635-13.249 7.643-13.264 7.643-13.264 15.323.026 15.324.026 7.61 13.179c4.185 7.248 7.611 13.227 7.613 13.287 0 .059-3.42 6.036-7.602 13.281l-7.604 13.174-15.34.026-15.34.026z" fill="#b0958e"/><path d="m263.91 461.81-7.634-13.249 7.643-13.264 7.642-13.264 15.324.026 15.323.026 7.61 13.179c4.186 7.248 7.612 13.227 7.613 13.286 0 .06-3.419 6.036-7.601 13.282l-7.604 13.173-15.34.026-15.341.027-7.635-13.249z" fill="#9b7970"/><path d="m172.028 461.841-7.634-13.248 7.642-13.264 7.643-13.264 15.324.026 15.323.026 7.61 13.178c4.186 7.249 7.611 13.228 7.613 13.287 0 .06-3.42 6.036-7.601 13.282l-7.605 13.173-15.34.026-15.34.026z" fill="#b0958e"/><path d="m217.96 435.365-7.634-13.248 7.643-13.264 7.643-13.264 15.323.026 15.323.026 7.61 13.178c4.186 7.249 7.612 13.228 7.613 13.287 0 .06-3.419 6.036-7.601 13.282l-7.604 13.173-15.34.026-15.341.026zm-91.899 53.057-7.634-13.249 7.643-13.264 7.642-13.264 15.324.026 15.323.026 7.61 13.179c4.186 7.248 7.612 13.227 7.613 13.286 0 .06-3.419 6.037-7.601 13.282l-7.604 13.174-15.34.026-15.341.026zm183.764-106.009-7.635-13.248 7.643-13.264 7.643-13.264 15.323.026 15.324.026 7.61 13.178c4.185 7.249 7.611 13.228 7.613 13.287 0 .06-3.42 6.036-7.602 13.282l-7.604 13.173-15.34.026-15.34.026z" fill="#b0958e"/><path d="m263.892 408.89-7.634-13.25 7.643-13.263 7.643-13.264 15.323.026 15.323.026 7.61 13.178c4.186 7.249 7.612 13.228 7.614 13.287 0 .06-3.42 6.036-7.602 13.282l-7.604 13.173-15.34.026-15.341.026-7.635-13.248zm91.883-.033-7.635-13.248 7.643-13.264 7.643-13.264 15.323.026 15.323.026 7.61 13.179c4.186 7.248 7.612 13.227 7.614 13.286 0 .06-3.42 6.036-7.602 13.282l-7.604 13.173-15.34.026-15.34.027z" fill="#b0958e"/><path d="m401.725 435.301-7.635-13.248 7.643-13.264 7.643-13.264 15.323.026 15.323.026 7.61 13.179c4.186 7.248 7.612 13.227 7.614 13.286 0 .06-3.42 6.037-7.602 13.282l-7.604 13.174-15.34.026-15.34.026-7.635-13.248z" fill="#b0958e"/><path d="m447.675 461.746-7.635-13.248 7.643-13.265 7.643-13.264 15.323.026 15.323.027 7.61 13.178c4.186 7.248 7.612 13.227 7.614 13.287 0 .06-3.42 6.036-7.602 13.281l-7.604 13.174-15.34.026-15.341.026z" fill="#b0958e"/><path d="m493.624 488.19-7.634-13.248 7.643-13.264 7.643-13.264 15.323.026 15.323.026 7.61 13.178c4.186 7.248 7.612 13.227 7.614 13.287 0 .06-3.42 6.036-7.602 13.281l-7.604 13.174-15.34.026-15.341.026z" fill="#b0958e"/><path d="m539.574 514.634-7.634-13.248 7.643-13.264 7.643-13.264 15.323.026 15.323.026 7.61 13.179c4.186 7.248 7.612 13.227 7.613 13.286 0 .06-3.419 6.036-7.601 13.282l-7.604 13.173-15.34.026-15.341.026z" fill="#ec7da7"/><path d="m539.558 567.659-7.635-13.248 7.643-13.265 7.643-13.264 15.323.026 15.323.027 7.61 13.178c4.186 7.248 7.612 13.227 7.614 13.287 0 .06-3.42 6.036-7.602 13.281l-7.604 13.174-15.34.026-15.341.026zm-.018 53.024-7.634-13.248 7.643-13.264 7.643-13.264 15.323.026 15.323.026 7.61 13.179c4.186 7.248 7.612 13.227 7.614 13.286 0 .06-3.42 6.037-7.602 13.282l-7.604 13.173-15.34.027-15.34.026-7.635-13.248zm-.016 53.025-7.635-13.248 7.643-13.264 7.643-13.264 15.323.026 15.324.026 7.61 13.178c4.185 7.249 7.611 13.228 7.613 13.287 0 .06-3.42 6.036-7.602 13.282l-7.604 13.173-15.34.026-15.34.026zm-.017 53.025-7.635-13.249 7.643-13.264 7.643-13.264 15.324.026 15.323.026 7.61 13.179c4.186 7.248 7.611 13.227 7.613 13.287 0 .06-3.42 6.036-7.601 13.281l-7.605 13.174-15.34.026-15.34.026z" fill="#76b9da"/><path d="m539.525 779.653-7.635-13.248 7.643-13.264 7.643-13.264 15.323.026 15.323.026 7.61 13.178c4.186 7.248 7.612 13.227 7.614 13.287 0 .06-3.42 6.036-7.602 13.281l-7.604 13.174-15.34.026-15.34.026z" fill="#76b9da"/><path d="m493.592 806.129-7.634-13.248 7.643-13.264 7.643-13.264 15.323.026 15.323.026 7.61 13.178c4.186 7.249 7.612 13.227 7.613 13.287 0 .06-3.419 6.036-7.601 13.281l-7.604 13.174-15.34.026-15.341.026z" fill="#76b9da"/><path d="m447.66 832.605-7.634-13.248 7.643-13.264 7.642-13.264 15.324.026 15.323.026 7.61 13.178c4.186 7.249 7.612 13.228 7.613 13.287 0 .06-3.419 6.036-7.601 13.282l-7.604 13.173-15.341.026-15.34.026z" fill="#76b9da"/><path d="m263.896 832.669-7.635-13.249 7.643-13.264 7.643-13.264 15.323.026 15.324.026 7.61 13.179c4.185 7.248 7.611 13.227 7.613 13.287 0 .06-3.42 6.036-7.602 13.281l-7.604 13.174-15.34.026-15.34.026z" fill="#c2e813"/><path d="m217.946 806.224-7.635-13.248 7.643-13.264 7.643-13.264 15.323.026 15.324.026 7.61 13.179c4.185 7.248 7.611 13.227 7.613 13.286 0 .06-3.42 6.036-7.602 13.282l-7.604 13.173-15.34.027-15.34.026z" fill="#c2e813"/><path d="m171.996 779.78-7.635-13.248 7.643-13.264 7.643-13.264 15.323.026 15.324.026 7.61 13.178c4.186 7.249 7.611 13.228 7.613 13.287 0 .06-3.42 6.036-7.602 13.282l-7.604 13.173-15.34.026-15.34.026z" fill="#c2e813"/><path d="m126.046 753.336-7.635-13.248 7.643-13.264 7.643-13.265 15.324.027 15.323.026 7.61 13.178c4.186 7.248 7.611 13.227 7.613 13.287 0 .06-3.42 6.036-7.601 13.281l-7.605 13.174-15.34.026-15.34.026z" fill="#c2e813"/><path d="m171.978 726.86-7.634-13.248 7.643-13.264 7.642-13.265 15.324.027 15.323.026 7.61 13.178c4.186 7.248 7.612 13.227 7.613 13.287 0 .06-3.419 6.036-7.601 13.281l-7.604 13.174-15.34.026-15.341.026z" fill="#c2e813"/><path d="m309.843 541.278-7.634-13.248 7.643-13.264 7.643-13.264 15.323.026 15.323.026 7.61 13.179c4.186 7.248 7.612 13.227 7.613 13.286 0 .06-3.419 6.036-7.601 13.282l-7.604 13.173-15.34.026-15.341.026zm.017-53.024-7.634-13.249 7.642-13.264 7.643-13.264 15.324.026 15.323.026 7.61 13.179c4.186 7.248 7.612 13.227 7.613 13.287 0 .059-3.419 6.036-7.601 13.281l-7.604 13.174-15.341.026-15.34.026z" fill="#b0958e"/><path d="m355.81 514.698-7.634-13.248 7.642-13.265 7.643-13.264 15.324.026 15.323.027 7.61 13.178c4.186 7.248 7.612 13.227 7.613 13.287 0 .06-3.42 6.036-7.601 13.281l-7.604 13.174-15.341.026-15.34.026z" fill="#b0958e"/><path d="m355.792 461.778-7.634-13.249 7.643-13.264 7.643-13.264 15.323.026 15.323.026 7.61 13.179c4.186 7.248 7.612 13.227 7.613 13.286 0 .06-3.419 6.037-7.601 13.282l-7.604 13.174-15.34.026-15.341.026zm-45.915-26.549-7.634-13.248 7.642-13.264 7.643-13.264 15.324.026 15.323.026 7.61 13.178c4.186 7.248 7.611 13.227 7.613 13.287 0 .06-3.42 6.036-7.601 13.281l-7.605 13.174-15.34.026-15.34.026z" fill="#b0958e"/><path d="m401.743 594.167-7.634-13.249 7.643-13.264 7.642-13.264 15.324.026 15.323.026 7.61 13.179c4.186 7.248 7.612 13.227 7.613 13.287 0 .06-3.419 6.036-7.601 13.281l-7.604 13.174-15.341.026-15.34.026z" fill="#76b9da"/><path d="m401.76 541.142-7.634-13.248 7.642-13.264 7.643-13.264 15.324.026 15.323.026 7.61 13.178c4.186 7.249 7.611 13.228 7.613 13.287 0 .06-3.42 6.036-7.601 13.282l-7.605 13.173-15.34.026-15.34.026z" fill="#b0958e"/><path d="m447.71 567.586-7.635-13.248 7.643-13.264 7.643-13.264 15.324.026 15.323.026 7.61 13.179c4.186 7.248 7.611 13.227 7.613 13.286 0 .06-3.42 6.036-7.601 13.282l-7.605 13.173-15.34.026-15.34.026z" fill="#76b9da"/><path d="m447.692 514.666-7.634-13.248 7.643-13.264 7.643-13.264 15.323.026 15.323.026 7.61 13.178c4.186 7.249 7.612 13.227 7.613 13.287 0 .06-3.419 6.036-7.601 13.281l-7.604 13.174-15.34.026-15.341.026zm-45.915-26.549-7.635-13.248 7.643-13.264 7.643-13.264 15.323.026 15.324.026 7.61 13.179c4.186 7.248 7.611 13.227 7.613 13.286 0 .06-3.42 6.036-7.602 13.282l-7.604 13.173-15.34.027-15.34.026z" fill="#b0958e"/><path d="m309.827 700.248-7.634-13.249 7.643-13.264 7.642-13.264 15.324.026 15.323.026 7.61 13.179c4.186 7.248 7.612 13.227 7.613 13.287 0 .06-3.419 6.036-7.601 13.281l-7.604 13.174-15.34.026-15.341.026zm.017-53.025-7.634-13.248 7.642-13.264 7.643-13.264 15.324.026 15.323.026 7.61 13.178c4.186 7.249 7.612 13.228 7.613 13.287 0 .06-3.42 6.036-7.601 13.282l-7.604 13.173-15.341.026-15.34.026z" fill="#76b9da"/><path d="m355.794 673.667-7.634-13.248 7.642-13.264 7.643-13.264 15.324.026 15.323.026 7.61 13.179c4.186 7.248 7.611 13.227 7.613 13.286 0 .06-3.42 6.036-7.601 13.282l-7.605 13.173-15.34.026-15.34.027z" fill="#76b9da"/><path d="m355.776 620.747-7.634-13.248 7.643-13.264 7.643-13.264 15.323.026 15.323.026 7.61 13.178c4.186 7.249 7.612 13.228 7.613 13.287 0 .06-3.419 6.036-7.601 13.282l-7.604 13.173-15.34.026-15.341.026zm-45.916-26.549-7.634-13.248 7.643-13.264 7.643-13.264 15.324.026 15.323.026 7.61 13.179c4.186 7.248 7.611 13.227 7.613 13.286 0 .06-3.42 6.037-7.601 13.282l-7.605 13.173-15.34.027-15.34.026-7.635-13.248zm91.867 158.938-7.634-13.248 7.642-13.264 7.643-13.264 15.324.026 15.323.026 7.61 13.178c4.186 7.249 7.612 13.228 7.613 13.287 0 .06-3.42 6.036-7.601 13.282l-7.604 13.173-15.341.026-15.34.026z" fill="#76b9da"/><path d="m401.744 700.112-7.635-13.249 7.643-13.264 7.643-13.264 15.324.026 15.323.026 7.61 13.179c4.186 7.248 7.611 13.227 7.613 13.286 0 .06-3.42 6.037-7.601 13.282l-7.605 13.174-15.34.026-15.34.026z" fill="#49a2ce"/><path d="m447.694 726.556-7.635-13.248 7.643-13.265 7.643-13.264 15.323.026 15.324.027 7.61 13.178c4.186 7.248 7.611 13.227 7.613 13.287 0 .06-3.42 6.036-7.602 13.281l-7.604 13.174-15.34.026-15.34.026z" fill="#49a2ce"/><path d="m447.676 673.635-7.634-13.248 7.643-13.264 7.642-13.264 15.324.026 15.323.026 7.61 13.179c4.186 7.248 7.612 13.227 7.613 13.286 0 .06-3.419 6.037-7.601 13.282l-7.604 13.174-15.34.026-15.341.026-7.635-13.248z" fill="#0a82de"/><path d="m401.76 647.087-7.634-13.248 7.643-13.264 7.643-13.265 15.323.027 15.324.026 7.61 13.178c4.185 7.248 7.611 13.227 7.613 13.287 0 .06-3.42 6.036-7.602 13.281l-7.604 13.174-15.34.026-15.34.026-7.635-13.248z" fill="#49a2ce"/><path d="m355.828 567.618-7.635-13.248 7.643-13.264 7.643-13.264 15.323.026 15.324.026 7.61 13.178c4.185 7.249 7.611 13.228 7.613 13.287 0 .06-3.42 6.036-7.602 13.282l-7.604 13.173-15.34.026-15.34.026z" fill="#76b9da"/><path d="m263.877 673.803-7.634-13.248 7.643-13.264 7.643-13.264 15.323.026 15.323.026 7.61 13.179c4.186 7.248 7.612 13.227 7.613 13.286 0 .06-3.419 6.037-7.601 13.282l-7.604 13.173-15.34.027-15.341.026-7.635-13.248zm-45.967 26.581-7.634-13.248 7.643-13.264 7.643-13.265 15.323.027 15.323.026 7.61 13.178c4.186 7.248 7.612 13.227 7.613 13.287 0 .06-3.419 6.036-7.601 13.281l-7.604 13.174-15.34.026-15.341.026z" fill="#c2e813"/><path d="m217.928 753.304-7.634-13.248 7.643-13.264 7.642-13.264 15.324.026 15.323.026 7.61 13.178c4.186 7.249 7.612 13.228 7.613 13.287 0 .06-3.419 6.036-7.601 13.282l-7.604 13.173-15.341.026-15.34.026z" fill="#a0be10"/><path d="m263.895 726.724-7.635-13.249 7.643-13.264 7.643-13.264 15.324.026 15.323.026 7.61 13.18c4.186 7.247 7.611 13.226 7.613 13.286 0 .06-3.42 6.036-7.601 13.281l-7.605 13.174-15.34.026-15.34.026z" fill="#c2e813"/><path d="m263.913 779.644-7.635-13.248 7.643-13.264 7.643-13.264 15.323.026 15.323.026 7.61 13.178c4.186 7.249 7.612 13.227 7.614 13.287 0 .06-3.42 6.036-7.602 13.281l-7.604 13.174-15.34.026-15.34.026z" fill="#c2e813"/><path d="m309.845 753.168-7.635-13.248 7.643-13.264 7.643-13.264 15.323.026 15.324.026 7.61 13.178c4.186 7.248 7.611 13.227 7.613 13.287 0 .06-3.42 6.036-7.602 13.281l-7.604 13.174-15.34.026-15.34.026z" fill="#76b9da"/><path d="m309.828 806.193-7.634-13.249 7.642-13.264 7.643-13.264 15.324.026 15.323.026 7.61 13.179c4.186 7.248 7.611 13.227 7.613 13.287 0 .059-3.42 6.036-7.601 13.281l-7.605 13.174-15.34.026-15.34.026z" fill="#c2e813"/><path d="m355.777 726.692-7.634-13.248 7.643-13.264 7.642-13.265 15.324.027 15.323.026 7.61 13.178c4.186 7.248 7.612 13.227 7.613 13.287 0 .06-3.419 6.036-7.601 13.281l-7.604 13.174-15.341.026-15.34.026zm-.017 53.025-7.634-13.249 7.643-13.264 7.643-13.264 15.323.026 15.323.026 7.61 13.179c4.186 7.248 7.612 13.227 7.613 13.286 0 .06-3.419 6.037-7.601 13.282l-7.604 13.174-15.34.026-15.341.026z" fill="#76b9da"/><path d="m355.778 832.637-7.635-13.248 7.643-13.265 7.643-13.264 15.324.026 15.323.027 7.61 13.178c4.186 7.248 7.611 13.227 7.613 13.287 0 .06-3.42 6.036-7.601 13.281l-7.605 13.174-15.34.026-15.34.026zm45.967-26.581-7.635-13.248 7.643-13.264 7.643-13.264 15.323.026 15.324.026 7.61 13.179c4.185 7.248 7.611 13.227 7.613 13.286 0 .06-3.42 6.036-7.602 13.282l-7.604 13.173-15.34.027-15.34.026-7.635-13.248z" fill="#76b9da"/><path d="m447.677 779.58-7.634-13.248 7.642-13.264 7.643-13.264 15.324.026 15.323.026 7.61 13.179c4.186 7.248 7.611 13.227 7.613 13.286 0 .06-3.42 6.036-7.601 13.282l-7.605 13.173-15.34.026-15.34.027z" fill="#76b9da"/><path d="m493.575 753.209-7.635-13.248 7.643-13.265 7.643-13.264 15.323.026 15.323.026 7.61 13.18c4.186 7.247 7.612 13.226 7.614 13.286 0 .06-3.42 6.036-7.602 13.281l-7.604 13.174-15.34.026-15.34.026z" fill="#76b9da"/><path d="m493.592 700.184-7.635-13.248 7.643-13.264 7.643-13.264 15.323.026 15.323.026 7.61 13.178c4.186 7.249 7.612 13.228 7.614 13.287 0 .06-3.42 6.036-7.602 13.282l-7.604 13.173-15.34.026-15.341.026zm.016-53.024-7.634-13.249 7.643-13.264 7.643-13.264 15.323.026 15.323.026 7.61 13.179c4.186 7.248 7.612 13.227 7.613 13.286 0 .06-3.419 6.037-7.601 13.282l-7.604 13.173-15.34.027-15.341.026zm-45.915-26.55-7.634-13.247 7.642-13.264 7.643-13.265 15.324.027 15.323.026 7.61 13.178c4.186 7.248 7.612 13.227 7.613 13.287 0 .06-3.42 6.036-7.601 13.281l-7.604 13.174-15.341.026-15.34.026-7.635-13.248z" fill="#49a2ce"/><path d="m493.59 594.24-7.634-13.249 7.643-13.264 7.643-13.264 15.323.026 15.324.026 7.61 13.179c4.185 7.248 7.611 13.227 7.613 13.286 0 .06-3.42 6.036-7.602 13.282l-7.604 13.173-15.34.026-15.34.026-7.635-13.248zm.052-53.13-7.634-13.248 7.643-13.264 7.643-13.264 15.323.026 15.323.026 7.61 13.179c4.186 7.248 7.612 13.227 7.613 13.286 0 .06-3.419 6.036-7.601 13.282l-7.604 13.173-15.34.026-15.341.026zm91.815 212.067-7.635-13.248 7.643-13.264 7.643-13.265 15.323.027 15.324.026 7.61 13.178c4.185 7.248 7.611 13.227 7.613 13.287 0 .06-3.42 6.036-7.602 13.281l-7.604 13.174-15.34.026-15.34.026z" fill="#76b9da"/><path d="m585.474 700.152-7.635-13.248 7.643-13.264 7.643-13.264 15.323.026 15.324.026 7.61 13.179c4.185 7.248 7.611 13.227 7.613 13.286 0 .06-3.42 6.036-7.602 13.282l-7.604 13.173-15.34.026-15.34.027zm.016-53.024-7.634-13.249 7.643-13.264 7.643-13.264 15.323.026 15.323.026 7.61 13.179c4.186 7.248 7.612 13.227 7.614 13.287 0 .06-3.42 6.036-7.602 13.281l-7.604 13.174-15.34.026-15.34.026-7.635-13.248zm.017-53.025-7.634-13.248 7.643-13.264 7.643-13.264 15.323.026 15.323.026 7.61 13.178c4.186 7.249 7.612 13.228 7.614 13.287 0 .06-3.42 6.036-7.602 13.282l-7.604 13.173-15.34.026-15.341.026zm.017-53.025-7.634-13.248 7.643-13.264 7.643-13.264 15.323.026 15.323.026 7.61 13.179c4.186 7.248 7.612 13.227 7.613 13.286 0 .06-3.419 6.036-7.601 13.282l-7.604 13.173-15.34.027-15.341.026-7.635-13.248z" fill="#ecaa51"/><path d="m585.507 488.158-7.635-13.248 7.643-13.264 7.643-13.264 15.323.026 15.323.026 7.61 13.179c4.186 7.248 7.612 13.227 7.614 13.286 0 .06-3.42 6.036-7.602 13.282l-7.604 13.173-15.34.026-15.34.026z" fill="#ec7da7"/><path d="m539.557 461.714-7.635-13.248 7.643-13.264 7.643-13.265 15.323.027 15.324.026 7.61 13.178c4.185 7.248 7.611 13.227 7.613 13.287 0 .06-3.42 6.036-7.602 13.281l-7.604 13.174-15.34.026-15.34.026z" fill="#ec7da7"/><path d="m493.607 435.27-7.635-13.249 7.643-13.264 7.643-13.264 15.323.026 15.324.026 7.61 13.179c4.185 7.248 7.611 13.227 7.613 13.287 0 .06-3.42 6.036-7.602 13.281l-7.604 13.174-15.34.026-15.34.026z" fill="#ec7da7"/><path d="m447.657 408.825-7.635-13.248 7.643-13.264 7.643-13.264 15.323.026 15.324.026 7.61 13.179c4.186 7.248 7.611 13.227 7.613 13.286 0 .06-3.42 6.037-7.602 13.282l-7.604 13.174-15.34.026-15.34.026-7.635-13.248z" fill="#ec7da7"/><path d="m401.707 382.381-7.635-13.248 7.643-13.264 7.643-13.264 15.324.026 15.323.026 7.61 13.179c4.186 7.248 7.611 13.227 7.613 13.286 0 .06-3.42 6.036-7.601 13.282l-7.605 13.173-15.34.026-15.34.026z" fill="#f56045"/><path d="m355.757 355.937-7.634-13.248 7.642-13.264 7.643-13.264 15.324.026 15.323.026 7.61 13.178c4.186 7.249 7.611 13.228 7.613 13.287 0 .06-3.42 6.036-7.601 13.282l-7.605 13.173-15.34.026-15.34.026z" fill="#f56045"/><path d="m631.406 673.676-7.634-13.248 7.642-13.264 7.643-13.264 15.324.026 15.323.026 7.61 13.179c4.186 7.248 7.611 13.227 7.613 13.286 0 .06-3.42 6.036-7.601 13.282l-7.605 13.173-15.34.026-15.34.026z" fill="#ecaa51"/><path d="m631.406 620.704-7.635-13.248 7.643-13.265 7.643-13.264 15.323.026 15.323.027 7.61 13.178c4.186 7.248 7.612 13.227 7.614 13.287 0 .06-3.42 6.036-7.602 13.281l-7.604 13.174-15.34.026-15.34.026z" fill="#ecaa51"/><path d="m677.314 647.13-7.634-13.248 7.642-13.264 7.643-13.264 15.324.026 15.323.026 7.61 13.179c4.186 7.248 7.611 13.227 7.613 13.286 0 .06-3.42 6.037-7.601 13.282l-7.604 13.174-15.341.026-15.34.026-7.635-13.248z" fill="#ecaa51"/><path d="m677.296 594.21-7.634-13.248 7.643-13.264 7.643-13.264 15.323.026 15.323.026 7.61 13.179c4.186 7.248 7.612 13.227 7.613 13.286 0 .06-3.419 6.036-7.601 13.282l-7.604 13.173-15.34.026-15.341.026z" fill="#ecaa51"/><path d="m723.246 620.654-7.634-13.248 7.643-13.264 7.643-13.264 15.323.026 15.323.026 7.61 13.179c4.186 7.248 7.612 13.227 7.613 13.286 0 .06-3.419 6.037-7.601 13.282l-7.604 13.174-15.34.026-15.341.026-7.635-13.248z" fill="#e38e19"/><path d="m723.263 567.63-7.634-13.248 7.643-13.264 7.642-13.265 15.324.027 15.323.026 7.61 13.178c4.186 7.248 7.612 13.227 7.613 13.287 0 .06-3.419 6.036-7.601 13.281l-7.604 13.174-15.34.026-15.341.026z" fill="#ecaa51"/><path d="m769.213 594.074-7.634-13.248 7.642-13.264 7.643-13.264 15.324.026 15.323.026 7.61 13.178c4.186 7.249 7.612 13.228 7.613 13.287 0 .06-3.42 6.036-7.601 13.282l-7.604 13.173-15.341.026-15.34.026z" fill="#e38e19"/><path d="m769.195 541.154-7.634-13.248 7.643-13.264 7.643-13.265 15.323.027 15.323.026 7.61 13.178c4.186 7.248 7.612 13.227 7.613 13.287 0 .06-3.419 6.036-7.601 13.281l-7.604 13.174-15.34.026-15.341.026zm-137.755 26.473-7.635-13.248 7.643-13.264 7.643-13.264 15.323.026 15.324.026 7.61 13.178c4.185 7.249 7.611 13.228 7.613 13.287 0 .06-3.42 6.036-7.602 13.282l-7.604 13.173-15.34.026-15.34.026z" fill="#ecaa51"/><path d="m631.44 514.655-7.635-13.249 7.643-13.264 7.643-13.264 15.323.026 15.323.026 7.61 13.179c4.186 7.248 7.612 13.227 7.613 13.287 0 .059-3.419 6.036-7.601 13.281l-7.604 13.174-15.34.026-15.341.026-7.635-13.248z" fill="#ecaa51"/><path d="m677.348 541.081-7.635-13.248 7.643-13.264 7.644-13.264 15.323.026 15.324.026 7.61 13.179c4.185 7.248 7.611 13.227 7.613 13.286 0 .06-3.42 6.036-7.602 13.282l-7.604 13.173-15.34.026-15.34.027-7.635-13.249z" fill="#ecaa51"/><path d="m677.33 488.161-7.634-13.248 7.642-13.264 7.643-13.264 15.324.026 15.323.026 7.61 13.178c4.186 7.249 7.612 13.228 7.613 13.287 0 .06-3.42 6.036-7.601 13.282l-7.604 13.173-15.341.026-15.34.026z" fill="#ecaa51"/><path d="m723.28 514.605-7.634-13.248 7.642-13.264 7.643-13.264 15.324.026 15.323.026 7.61 13.179c4.186 7.248 7.611 13.227 7.613 13.286 0 .06-3.42 6.036-7.601 13.282l-7.605 13.173-15.34.026-15.34.026zm.017-53.025-7.635-13.248 7.643-13.264 7.643-13.264 15.323.026 15.324.026 7.61 13.179c4.186 7.248 7.611 13.227 7.613 13.287 0 .06-3.42 6.036-7.602 13.281l-7.604 13.174-15.34.026-15.34.026-7.635-13.248z" fill="#ecaa51"/><path d="m769.247 488.025-7.635-13.248 7.643-13.264 7.643-13.265 15.323.027 15.324.026 7.61 13.178c4.185 7.248 7.611 13.227 7.613 13.287 0 .06-3.42 6.036-7.602 13.281l-7.604 13.174-15.34.026-15.34.026z" fill="#747474"/><path d="m769.23 435.105-7.635-13.249 7.643-13.264 7.642-13.264 15.324.026 15.323.026 7.61 13.179c4.186 7.248 7.612 13.227 7.613 13.287 0 .059-3.419 6.036-7.601 13.281l-7.604 13.174-15.34.026-15.341.026-7.635-13.248z" fill="#747474"/><path d="m677.347 435.136-7.634-13.248 7.642-13.264 7.643-13.264 15.324.026 15.323.026 7.61 13.179c4.186 7.248 7.611 13.227 7.613 13.286 0 .06-3.42 6.036-7.601 13.282l-7.605 13.173-15.34.027-15.34.026z" fill="#ecaa51"/><path d="m723.28 408.66-7.635-13.248 7.643-13.264 7.643-13.264 15.323.026 15.323.026 7.61 13.179c4.186 7.248 7.612 13.227 7.613 13.286 0 .06-3.419 6.036-7.601 13.282l-7.604 13.173-15.34.026-15.341.027-7.635-13.249zm-91.9 53.057-7.634-13.248 7.643-13.265 7.642-13.264 15.324.026 15.323.027 7.61 13.178c4.186 7.248 7.612 13.227 7.613 13.287 0 .06-3.419 6.036-7.601 13.281l-7.604 13.174-15.34.026-15.341.026z" fill="#ecaa51"/><path d="m815.144 355.708-7.635-13.248 7.643-13.264 7.643-13.264 15.323.026 15.323.026 7.61 13.179c4.186 7.248 7.612 13.227 7.614 13.286 0 .06-3.42 6.036-7.602 13.282l-7.604 13.173-15.34.026-15.34.027z" fill="#4d4d4d"/><path d="m769.211 382.184-7.634-13.248 7.643-13.264 7.643-13.264 15.323.026 15.323.026 7.61 13.179c4.186 7.248 7.612 13.227 7.613 13.286 0 .06-3.419 6.036-7.6 13.282l-7.605 13.173-15.34.026-15.341.027z" fill="#747474"/><path d="m861.094 382.153-7.635-13.249 7.643-13.264 7.643-13.264 15.323.026 15.324.026 7.61 13.179c4.185 7.248 7.611 13.227 7.613 13.286 0 .06-3.42 6.037-7.602 13.282l-7.604 13.174-15.34.026-15.34.026z" fill="#0a82de"/><path d="m907.044 408.597-7.635-13.248 7.643-13.265 7.643-13.264 15.323.026 15.323.027 7.61 13.178c4.186 7.248 7.612 13.227 7.614 13.287 0 .06-3.42 6.036-7.602 13.281l-7.604 13.174-15.34.026-15.34.026z" fill="#4d4d4d"/><path d="m952.994 435.041-7.635-13.248 7.643-13.264 7.643-13.264 15.323.026 15.323.026 7.61 13.178c4.186 7.249 7.612 13.227 7.614 13.287 0 .06-3.42 6.036-7.602 13.282l-7.604 13.173-15.34.026-15.34.026z" fill="#747474"/><path d="m998.944 461.485-7.635-13.248 7.643-13.264 7.643-13.264 15.323.026 15.323.026 7.61 13.179c4.186 7.248 7.612 13.227 7.614 13.286 0 .06-3.42 6.036-7.602 13.282l-7.604 13.173-15.34.026-15.341.026-7.635-13.248z" fill="#fce79e"/><path d="m1044.893 487.93-7.634-13.249 7.643-13.264 7.643-13.264 15.323.026 15.323.026 7.61 13.179c4.186 7.248 7.612 13.227 7.614 13.286 0 .06-3.42 6.037-7.602 13.282l-7.604 13.173-15.34.027-15.341.026-7.634-13.248z" fill="#fce79e"/><path d="m1044.877 540.954-7.635-13.248 7.643-13.264 7.643-13.264 15.323.026 15.324.026 7.61 13.178c4.185 7.249 7.611 13.228 7.613 13.287 0 .06-3.42 6.036-7.602 13.282l-7.604 13.173-15.34.026-15.34.026zm-.017 53.025-7.635-13.249 7.643-13.264 7.643-13.264 15.323.026 15.324.026 7.61 13.179c4.185 7.248 7.611 13.227 7.613 13.287 0 .06-3.42 6.036-7.602 13.281l-7.604 13.174-15.34.026-15.34.026zm-.017 53.024-7.635-13.248 7.643-13.264 7.643-13.264 15.323.026 15.324.026 7.61 13.179c4.186 7.248 7.611 13.227 7.613 13.286 0 .06-3.42 6.036-7.602 13.282l-7.604 13.173-15.34.026-15.34.027zm-.017 53.025-7.634-13.248 7.642-13.264 7.643-13.264 15.324.026 15.323.026 7.61 13.178c4.186 7.248 7.612 13.227 7.613 13.287 0 .06-3.42 6.036-7.601 13.281l-7.605 13.174-15.34.026-15.34.026z" fill="#fce79e"/><path d="m1044.844 752.948-7.635-13.248 7.643-13.264 7.643-13.264 15.323.026 15.323.026 7.61 13.179c4.186 7.248 7.612 13.227 7.614 13.286 0 .06-3.42 6.036-7.602 13.282l-7.604 13.173-15.34.026-15.34.026z" fill="#f4ea68"/><path d="m998.912 779.424-7.635-13.248 7.643-13.264 7.643-13.264 15.323.026 15.323.026 7.61 13.179c4.186 7.248 7.612 13.227 7.614 13.286 0 .06-3.42 6.036-7.602 13.282l-7.604 13.173-15.34.026-15.341.026z" fill="#f4ea68"/><path d="m952.98 805.9-7.635-13.248 7.643-13.264 7.642-13.264 15.324.026 15.323.026 7.61 13.179c4.186 7.248 7.612 13.227 7.613 13.286 0 .06-3.419 6.036-7.601 13.282l-7.604 13.173-15.34.026-15.341.027-7.635-13.249z" fill="#f4ea68"/><path d="m907.047 832.376-7.634-13.248 7.642-13.264 7.643-13.264 15.324.026 15.323.026 7.61 13.179c4.186 7.248 7.611 13.227 7.613 13.286 0 .06-3.42 6.036-7.601 13.282l-7.605 13.173-15.34.026-15.34.027zm-91.882.032-7.635-13.248 7.643-13.264 7.643-13.264 15.323.026 15.324.026 7.61 13.178c4.185 7.249 7.611 13.228 7.613 13.287 0 .06-3.42 6.036-7.602 13.282l-7.604 13.173-15.34.026-15.34.026z" fill="#f4ea68"/><path d="m769.215 805.964-7.635-13.248 7.643-13.264 7.643-13.265 15.323.027 15.324.026 7.61 13.178c4.185 7.248 7.611 13.227 7.613 13.287 0 .06-3.42 6.036-7.602 13.281l-7.604 13.174-15.34.026-15.34.026z" fill="#f4ea68"/><path d="m723.265 779.52-7.635-13.249 7.643-13.264 7.643-13.264 15.323.026 15.324.026 7.61 13.179c4.185 7.248 7.611 13.227 7.613 13.287 0 .06-3.42 6.036-7.602 13.281l-7.604 13.174-15.34.026-15.34.026z" fill="#76b9da"/><path d="m677.315 753.075-7.635-13.248 7.643-13.264 7.643-13.264 15.323.026 15.324.026 7.61 13.179c4.186 7.248 7.611 13.227 7.613 13.286 0 .06-3.42 6.036-7.601 13.282l-7.605 13.173-15.34.027-15.34.026-7.635-13.248z" fill="#76b9da"/><path d="m631.365 726.631-7.635-13.248 7.643-13.264 7.643-13.264 15.323.026 15.324.026 7.61 13.179c4.186 7.248 7.611 13.227 7.613 13.286 0 .06-3.42 6.036-7.602 13.282l-7.604 13.173-15.34.026-15.34.026z" fill="#76b9da"/><path d="m677.297 700.155-7.634-13.248 7.643-13.264 7.642-13.264 15.324.026 15.323.026 7.61 13.178c4.186 7.249 7.612 13.228 7.613 13.287 0 .06-3.419 6.036-7.601 13.282l-7.604 13.173-15.34.026-15.341.026z" fill="#ecaa51"/><path d="m815.162 514.573-7.634-13.248 7.643-13.264 7.643-13.264 15.323.026 15.323.026 7.61 13.179c4.186 7.248 7.612 13.227 7.613 13.286 0 .06-3.419 6.037-7.601 13.282l-7.604 13.173-15.34.027-15.341.026-7.635-13.248zm.018-53.024-7.635-13.248 7.642-13.265 7.643-13.264 15.324.026 15.323.027 7.61 13.178c4.186 7.248 7.612 13.227 7.613 13.287 0 .06-3.419 6.036-7.601 13.281l-7.604 13.174-15.341.026-15.34.026-7.635-13.248z" fill="#747474"/><path d="m861.13 487.993-7.635-13.248 7.642-13.264 7.643-13.264 15.324.026 15.323.026 7.61 13.178c4.186 7.249 7.612 13.228 7.613 13.287 0 .06-3.419 6.036-7.601 13.282l-7.604 13.173-15.34.026-15.341.026-7.635-13.248z" fill="#747474"/><path d="m861.111 435.073-7.634-13.248 7.643-13.265 7.643-13.264 15.323.026 15.323.027 7.61 13.178c4.186 7.248 7.612 13.227 7.613 13.287 0 .06-3.419 6.036-7.6 13.281l-7.605 13.174-15.34.026-15.341.026zm-45.915-26.549-7.634-13.248 7.642-13.264 7.643-13.264 15.324.026 15.323.026 7.61 13.179c4.186 7.248 7.611 13.227 7.613 13.286 0 .06-3.42 6.036-7.601 13.282l-7.605 13.173-15.34.026-15.34.026z" fill="#4d4d4d"/><path d="m907.062 567.462-7.634-13.248 7.643-13.264 7.643-13.265 15.323.027 15.323.026 7.61 13.178c4.186 7.248 7.612 13.227 7.613 13.287 0 .06-3.419 6.036-7.601 13.281l-7.604 13.174-15.34.026-15.341.026zm.018-53.025-7.635-13.248 7.642-13.264 7.643-13.264 15.324.026 15.323.026 7.61 13.179c4.186 7.248 7.612 13.227 7.613 13.286 0 .06-3.419 6.036-7.601 13.282l-7.604 13.173-15.341.026-15.34.026-7.635-13.248z" fill="#fce79e"/><path d="m953.029 540.881-7.634-13.248 7.642-13.264 7.643-13.264 15.324.026 15.323.026 7.61 13.179c4.186 7.248 7.611 13.227 7.613 13.286 0 .06-3.42 6.037-7.601 13.282l-7.604 13.174-15.341.026-15.34.026-7.635-13.248z" fill="#fce79e"/><path d="m953.011 487.961-7.634-13.248 7.643-13.264 7.643-13.264 15.323.026 15.323.026 7.61 13.179c4.186 7.248 7.612 13.227 7.613 13.286 0 .06-3.419 6.036-7.601 13.282l-7.604 13.173-15.34.026-15.341.026z" fill="#fce79e"/><path d="m907.096 461.413-7.634-13.249 7.642-13.264 7.643-13.264 15.324.026 15.323.026 7.61 13.179c4.186 7.248 7.611 13.227 7.613 13.287 0 .06-3.42 6.036-7.601 13.281l-7.605 13.174-15.34.026-15.34.026z" fill="#747474"/><path d="m815.146 673.543-7.634-13.248 7.643-13.264 7.642-13.264 15.324.026 15.323.026 7.61 13.178c4.186 7.248 7.612 13.227 7.613 13.287 0 .06-3.419 6.036-7.601 13.281l-7.604 13.174-15.34.026-15.341.026zm.017-53.025-7.634-13.248 7.642-13.264 7.643-13.264 15.324.026 15.323.026 7.61 13.179c4.186 7.248 7.612 13.227 7.613 13.286 0 .06-3.419 6.036-7.601 13.282l-7.604 13.173-15.341.026-15.34.027z" fill="#e38e19"/><path d="m861.113 646.963-7.634-13.249 7.642-13.264 7.643-13.264 15.324.026 15.323.026 7.61 13.179c4.186 7.248 7.612 13.227 7.613 13.287 0 .059-3.42 6.036-7.601 13.281l-7.604 13.174-15.341.026-15.34.026z" fill="#ecaa51"/><path d="m861.095 594.042-7.634-13.248 7.643-13.264 7.643-13.264 15.323.026 15.323.026 7.61 13.179c4.186 7.248 7.612 13.227 7.613 13.286 0 .06-3.419 6.036-7.601 13.282l-7.604 13.173-15.34.026-15.341.027zm-45.915-26.548-7.635-13.249 7.643-13.264 7.643-13.264 15.323.026 15.324.026 7.61 13.179c4.186 7.248 7.611 13.227 7.613 13.287 0 .06-3.42 6.036-7.602 13.281l-7.604 13.174-15.34.026-15.34.026z" fill="#ecaa51"/><path d="m907.046 726.431-7.634-13.248 7.643-13.264 7.642-13.264 15.324.026 15.323.026 7.61 13.179c4.186 7.248 7.612 13.227 7.613 13.286 0 .06-3.419 6.036-7.601 13.282l-7.604 13.173-15.34.027-15.341.026z" fill="#fce79e"/><path d="m907.063 673.407-7.634-13.248 7.642-13.265 7.643-13.264 15.324.026 15.323.027 7.61 13.178c4.186 7.248 7.612 13.227 7.613 13.287 0 .06-3.42 6.036-7.601 13.281l-7.604 13.174-15.341.026-15.34.026z" fill="#ecaa51"/><path d="m953.013 699.851-7.634-13.248 7.642-13.264 7.643-13.264 15.324.026 15.323.026 7.61 13.178c4.185 7.249 7.611 13.228 7.613 13.287 0 .06-3.42 6.036-7.601 13.282l-7.605 13.173-15.34.026-15.34.026z" fill="#fce79e"/><path d="m952.995 646.93-7.634-13.247 7.643-13.265 7.643-13.264 15.323.026 15.323.027 7.61 13.178c4.186 7.248 7.612 13.227 7.613 13.287 0 .06-3.419 6.036-7.601 13.281l-7.604 13.174-15.34.026-15.341.026-7.635-13.248zm-45.915-26.548-7.635-13.248 7.643-13.264 7.643-13.264 15.323.026 15.324.026 7.61 13.178c4.185 7.249 7.611 13.228 7.613 13.287 0 .06-3.42 6.036-7.601 13.282l-7.605 13.173-15.34.026-15.34.026z" fill="#fce79e"/><path d="m861.147 540.913-7.635-13.248 7.643-13.264 7.643-13.264 15.323.026 15.324.026 7.61 13.179c4.186 7.248 7.611 13.227 7.613 13.286 0 .06-3.42 6.036-7.602 13.282l-7.604 13.173-15.34.026-15.34.027z" fill="#747474"/><path d="m769.196 647.099-7.634-13.249 7.643-13.264 7.643-13.264 15.323.026 15.323.027 7.61 13.178c4.186 7.248 7.612 13.227 7.613 13.287 0 .06-3.419 6.036-7.601 13.281l-7.604 13.174-15.34.026-15.341.026z" fill="#0a82de"/><path d="m723.23 673.68-7.635-13.25 7.643-13.263 7.643-13.264 15.323.026 15.323.026 7.61 13.178c4.186 7.249 7.612 13.228 7.613 13.287 0 .06-3.419 6.036-7.601 13.282l-7.604 13.173-15.34.026-15.341.026-7.635-13.248z" fill="#e38e19"/><path d="m723.247 726.6-7.634-13.249 7.643-13.264 7.642-13.264 15.324.026 15.323.026 7.61 13.179c4.186 7.248 7.612 13.227 7.613 13.286 0 .06-3.419 6.036-7.601 13.282l-7.604 13.173-15.34.027-15.341.026-7.635-13.249z" fill="#ecaa51"/><path d="m769.214 700.019-7.635-13.248 7.643-13.264 7.643-13.264 15.323.026 15.324.026 7.61 13.178c4.186 7.249 7.611 13.227 7.613 13.287 0 .06-3.42 6.036-7.602 13.281l-7.604 13.174-15.34.026-15.34.026z" fill="#e38e19"/><path d="m769.232 752.94-7.635-13.249 7.643-13.264 7.643-13.264 15.323.026 15.323.026 7.61 13.179c4.186 7.248 7.612 13.227 7.614 13.286 0 .06-3.42 6.036-7.602 13.282l-7.604 13.173-15.34.026-15.34.026-7.635-13.248z" fill="#f4ea68"/><path d="m815.164 726.463-7.635-13.248 7.643-13.264 7.643-13.264 15.324.026 15.323.026 7.61 13.179c4.186 7.248 7.611 13.227 7.613 13.286 0 .06-3.42 6.036-7.602 13.282l-7.604 13.173-15.34.026-15.34.026z" fill="#ecaa51"/><path d="m815.147 779.488-7.634-13.248 7.642-13.265 7.643-13.264 15.324.027 15.323.026 7.61 13.178c4.186 7.248 7.611 13.227 7.613 13.287 0 .06-3.42 6.036-7.601 13.281l-7.604 13.174-15.341.026-15.34.026z" fill="#fce79e"/><path d="m861.096 699.987-7.634-13.248 7.643-13.264 7.642-13.264 15.324.026 15.323.026 7.61 13.179c4.186 7.248 7.612 13.227 7.613 13.286 0 .06-3.419 6.036-7.601 13.282l-7.604 13.173-15.34.026-15.341.026z" fill="#ecaa51"/><path d="m861.08 753.012-7.635-13.248 7.643-13.265 7.643-13.264 15.323.026 15.323.027 7.61 13.178c4.186 7.248 7.612 13.227 7.613 13.287 0 .06-3.419 6.036-7.601 13.281l-7.604 13.174-15.34.026-15.341.026-7.635-13.248z" fill="#fce79e"/><path d="m861.097 805.932-7.634-13.248 7.642-13.264 7.643-13.264 15.324.026 15.323.026 7.61 13.178c4.186 7.249 7.611 13.228 7.613 13.287 0 .06-3.42 6.036-7.601 13.282l-7.605 13.173-15.34.026-15.34.026zm45.967-26.58-7.635-13.249 7.643-13.264 7.643-13.264 15.323.026 15.324.026 7.61 13.179c4.185 7.248 7.611 13.227 7.613 13.287 0 .06-3.42 6.036-7.602 13.281l-7.604 13.174-15.34.026-15.34.026z" fill="#f4ea68"/><path d="m952.996 752.876-7.634-13.249 7.642-13.264 7.643-13.264 15.324.026 15.323.026 7.61 13.179c4.186 7.248 7.612 13.227 7.613 13.287 0 .06-3.419 6.036-7.601 13.281l-7.605 13.174-15.34.026-15.34.026z" fill="#fce79e"/><path d="m998.894 726.504-7.635-13.248 7.643-13.264 7.643-13.264 15.323.026 15.324.026 7.61 13.178c4.185 7.249 7.611 13.227 7.613 13.287 0 .06-3.42 6.036-7.602 13.281l-7.604 13.174-15.34.026-15.34.026z" fill="#f4ea68"/><path d="m998.91 673.48-7.634-13.249 7.643-13.264 7.643-13.264 15.323.026 15.323.026 7.61 13.179c4.186 7.248 7.612 13.227 7.614 13.286 0 .06-3.42 6.036-7.602 13.282l-7.604 13.173-15.34.026-15.34.027-7.635-13.249zm.018-53.025-7.635-13.249 7.643-13.264 7.643-13.264 15.323.026 15.323.026 7.61 13.18c4.186 7.247 7.612 13.226 7.614 13.286 0 .06-3.42 6.036-7.602 13.281l-7.604 13.174-15.34.026-15.341.026zm-45.916-26.549-7.634-13.248 7.643-13.264 7.642-13.264 15.324.026 15.323.026 7.61 13.178c4.186 7.249 7.612 13.228 7.613 13.287 0 .06-3.419 6.036-7.601 13.282l-7.604 13.173-15.341.026-15.34.026z" fill="#fce79e"/><path d="m998.91 567.534-7.635-13.248 7.643-13.264 7.643-13.264 15.323.026 15.324.026 7.61 13.179c4.185 7.248 7.611 13.227 7.613 13.286 0 .06-3.42 6.037-7.602 13.282l-7.604 13.174-15.34.026-15.34.026-7.635-13.248z" fill="#fadd75"/><path d="m998.961 514.405-7.634-13.248 7.643-13.264 7.643-13.264 15.323.026 15.323.026 7.61 13.179c4.186 7.248 7.612 13.227 7.613 13.286 0 .06-3.419 6.037-7.601 13.282l-7.604 13.173-15.34.027-15.341.026-7.635-13.248z" fill="#fce79e"/><path d="m1090.776 726.472-7.635-13.248 7.643-13.264 7.643-13.264 15.324.026 15.323.026 7.61 13.179c4.186 7.248 7.611 13.227 7.613 13.286 0 .06-3.42 6.036-7.601 13.282l-7.605 13.173-15.34.026-15.34.026z" fill="#f4ea68"/><path d="m1090.793 673.448-7.635-13.249 7.643-13.264 7.643-13.264 15.323.026 15.324.026 7.61 13.179c4.185 7.248 7.611 13.227 7.613 13.287 0 .059-3.42 6.036-7.602 13.281l-7.604 13.174-15.34.026-15.34.026zm.017-53.025-7.635-13.248 7.643-13.264 7.643-13.265 15.323.027 15.323.026 7.61 13.178c4.186 7.248 7.612 13.227 7.614 13.287 0 .06-3.42 6.036-7.602 13.281l-7.604 13.174-15.34.026-15.34.026z" fill="#fce79e"/><path d="m1090.827 567.398-7.635-13.248 7.643-13.264 7.643-13.264 15.323.026 15.323.026 7.61 13.179c4.186 7.248 7.612 13.227 7.614 13.286 0 .06-3.42 6.036-7.602 13.282l-7.604 13.173-15.34.026-15.341.027zm.016-53.024-7.634-13.249 7.643-13.264 7.643-13.264 15.323.026 15.323.026 7.61 13.179c4.186 7.248 7.612 13.227 7.613 13.287 0 .06-3.419 6.036-7.601 13.281l-7.604 13.174-15.34.026-15.341.026z" fill="#fce79e"/><path d="m1090.826 461.453-7.635-13.248 7.643-13.264 7.643-13.264 15.323.026 15.324.026 7.61 13.179c4.185 7.248 7.611 13.227 7.613 13.286 0 .06-3.42 6.036-7.602 13.282l-7.604 13.173-15.34.027-15.34.026-7.635-13.248z" fill="#fce79e"/><path d="m1044.876 435.01-7.635-13.249 7.643-13.264 7.643-13.264 15.323.026 15.324.026 7.61 13.179c4.186 7.248 7.611 13.227 7.613 13.286 0 .06-3.42 6.036-7.602 13.282l-7.604 13.173-15.34.026-15.34.026-7.635-13.248z" fill="#fce79e"/><path d="m998.926 408.565-7.635-13.248 7.643-13.264 7.643-13.264 15.323.026 15.324.026 7.61 13.178c4.186 7.249 7.611 13.227 7.613 13.287 0 .06-3.42 6.036-7.601 13.281l-7.605 13.174-15.34.026-15.34.026z" fill="#747474"/><path d="m952.976 382.12-7.634-13.247 7.642-13.265 7.643-13.264 15.324.026 15.323.027 7.61 13.178c4.186 7.248 7.611 13.227 7.613 13.287 0 .06-3.42 6.036-7.601 13.281l-7.605 13.174-15.34.026-15.34.026-7.635-13.248z" fill="#747474"/><path d="m907.026 355.676-7.634-13.248 7.642-13.264 7.643-13.264 15.324.026 15.323.026 7.61 13.179c4.186 7.248 7.611 13.227 7.613 13.286 0 .06-3.42 6.037-7.601 13.282l-7.604 13.174-15.341.026-15.34.026-7.635-13.248z" fill="#4d4d4d"/><path d="m861.076 329.232-7.635-13.248 7.643-13.264 7.643-13.264 15.324.026 15.323.026 7.61 13.179c4.186 7.248 7.612 13.227 7.613 13.286 0 .06-3.42 6.036-7.601 13.282l-7.604 13.173-15.341.026-15.34.027z" fill="#4d4d4d"/><path d="m861.075 223.287-7.634-13.248 7.643-13.264 7.643-13.264 15.323.026 15.323.026 7.61 13.179c4.186 7.248 7.612 13.227 7.613 13.286 0 .06-3.419 6.036-7.601 13.282l-7.604 13.173-15.34.027-15.341.026-7.635-13.248z" fill="#bf958a"/><path d="m861.075 170.315-7.635-13.248 7.643-13.264 7.643-13.264 15.323.026 15.324.026 7.61 13.178c4.185 7.249 7.611 13.227 7.613 13.287 0 .06-3.42 6.036-7.602 13.281l-7.604 13.174-15.34.026-15.34.026z" fill="#9b7970"/><path d="m906.983 196.742-7.634-13.249 7.643-13.264 7.643-13.264 15.323.026 15.323.026 7.61 13.179c4.186 7.248 7.612 13.227 7.613 13.287 0 .06-3.419 6.036-7.601 13.281l-7.604 13.174-15.34.026-15.341.026z" fill="#bf958a"/><path d="m906.966 143.821-7.635-13.248 7.643-13.264 7.643-13.264 15.323.026 15.323.026 7.61 13.179c4.186 7.248 7.612 13.227 7.614 13.286 0 .06-3.42 6.036-7.602 13.282l-7.604 13.173-15.34.027-15.341.026-7.634-13.248z" fill="#bf958a"/><path d="m952.915 170.266-7.634-13.249 7.643-13.264 7.643-13.264 15.323.026 15.323.026 7.61 13.179c4.186 7.248 7.612 13.227 7.613 13.287 0 .06-3.419 6.036-7.6 13.281l-7.605 13.174-15.34.026-15.341.026z" fill="#bf958a"/><path d="m952.932 117.241-7.634-13.248 7.643-13.264 7.643-13.264 15.323.026 15.323.026 7.61 13.178c4.186 7.249 7.612 13.227 7.613 13.287 0 .06-3.419 6.036-7.601 13.281l-7.604 13.174-15.34.026-15.341.026z" fill="#bf958a"/><path d="m998.882 143.685-7.634-13.248 7.643-13.264 7.643-13.264 15.323.026 15.323.026 7.61 13.179c4.186 7.248 7.612 13.227 7.613 13.286 0 .06-3.419 6.036-7.601 13.282l-7.604 13.173-15.34.026-15.341.026z" fill="#bf958a"/><path d="m998.865 90.765-7.635-13.248 7.643-13.264 7.643-13.264 15.323.026 15.323.026 7.61 13.178c4.186 7.248 7.612 13.227 7.614 13.287 0 .06-3.42 6.036-7.602 13.281l-7.604 13.174-15.34.026-15.341.026z" fill="#c0c0c0"/><path d="m861.109 117.238-7.635-13.248 7.643-13.264 7.643-13.264 15.324.026 15.323.026 7.61 13.178c4.186 7.249 7.611 13.228 7.613 13.287 0 .06-3.42 6.036-7.601 13.282l-7.605 13.173-15.34.026-15.34.026z" fill="#bf958a"/><path d="m907.017 90.692-7.634-13.248 7.642-13.264 7.643-13.264 15.324.026 15.323.026 7.61 13.179c4.186 7.248 7.611 13.227 7.613 13.286 0 .06-3.42 6.036-7.601 13.282l-7.605 13.173-15.34.027-15.34.026z" fill="#c0c0c0"/><path d="m1090.784 408.463-7.635-13.248 7.643-13.264 7.643-13.264 15.324.026 15.323.026 7.61 13.179c4.186 7.248 7.611 13.227 7.613 13.286 0 .06-3.42 6.037-7.601 13.282l-7.605 13.173-15.34.027-15.34.026-7.635-13.248z" fill="#747474"/><path d="m1044.834 382.02-7.634-13.249 7.642-13.264 7.643-13.264 15.324.026 15.323.026 7.61 13.179c4.186 7.248 7.611 13.227 7.613 13.286 0 .06-3.42 6.036-7.601 13.282l-7.605 13.173-15.34.026-15.34.026-7.635-13.248z" fill="#747474"/><path d="m998.884 355.575-7.635-13.248 7.643-13.264 7.643-13.264 15.324.026 15.323.026 7.61 13.178c4.186 7.249 7.612 13.228 7.613 13.287 0 .06-3.42 6.036-7.601 13.282l-7.604 13.173-15.341.026-15.34.026z" fill="#747474"/><path d="m952.934 329.13-7.634-13.247 7.642-13.265 7.643-13.264 15.324.026 15.323.027 7.61 13.178c4.186 7.248 7.611 13.227 7.613 13.287 0 .06-3.42 6.036-7.601 13.281l-7.605 13.174-15.34.026-15.34.026-7.635-13.248z" fill="#747474"/><path d="m906.984 302.687-7.634-13.249 7.642-13.264 7.643-13.264 15.324.026 15.323.026 7.61 13.179c4.186 7.248 7.612 13.227 7.613 13.286 0 .06-3.419 6.037-7.601 13.282l-7.604 13.174-15.341.026-15.34.026z" fill="#747474"/><path d="m861.034 276.242-7.634-13.248 7.642-13.264 7.643-13.264 15.324.026 15.323.026 7.61 13.179c4.186 7.248 7.612 13.227 7.613 13.286 0 .06-3.419 6.036-7.601 13.282l-7.604 13.173-15.341.026-15.34.027z" fill="#747474"/><path d="m906.966 249.766-7.634-13.248 7.643-13.264 7.643-13.264 15.323.026 15.323.026 7.61 13.179c4.186 7.248 7.612 13.227 7.613 13.286 0 .06-3.419 6.036-7.601 13.282l-7.604 13.173-15.34.026-15.341.027z" fill="#747474"/><path d="m1044.815 223.154-7.634-13.248 7.643-13.264 7.643-13.264 15.323.026 15.323.026 7.61 13.178c4.186 7.249 7.612 13.228 7.614 13.287 0 .06-3.42 6.036-7.602 13.282l-7.604 13.173-15.34.026-15.341.026z" fill="#bf958a"/><path d="m1044.832 170.13-7.634-13.249 7.643-13.264 7.643-13.264 15.323.026 15.323.026 7.61 13.179c4.186 7.248 7.612 13.227 7.613 13.286 0 .06-3.419 6.037-7.601 13.282l-7.604 13.173-15.34.027-15.341.026z" fill="#bf958a"/><path d="m1090.782 196.574-7.634-13.249 7.643-13.264 7.643-13.264 15.323.026 15.323.026 7.61 13.179c4.186 7.248 7.612 13.227 7.613 13.287 0 .06-3.419 6.036-7.601 13.281l-7.604 13.174-15.34.026-15.341.026z" fill="#bf958a"/><path d="m1090.764 143.653-7.634-13.248 7.643-13.264 7.643-13.264 15.323.026 15.323.026 7.61 13.179c4.186 7.248 7.612 13.227 7.614 13.286 0 .06-3.42 6.037-7.602 13.282l-7.604 13.173-15.34.027-15.34.026-7.635-13.248z" fill="#c0c0c0"/><path d="m1044.85 117.105-7.635-13.248 7.643-13.264 7.642-13.265 15.324.026 15.323.027 7.61 13.178c4.186 7.248 7.612 13.227 7.613 13.287 0 .06-3.419 6.036-7.601 13.281l-7.604 13.174-15.341.026-15.34.026-7.635-13.248zm-45.985 79.605-7.634-13.248 7.643-13.264 7.643-13.265 15.323.027 15.323.026 7.61 13.178c4.186 7.248 7.612 13.227 7.613 13.287 0 .06-3.419 6.036-7.601 13.281l-7.604 13.174-15.34.026-15.341.026zm-45.966 26.58-7.635-13.248 7.643-13.264 7.643-13.264 15.323.026 15.323.026 7.61 13.179c4.186 7.248 7.612 13.227 7.614 13.286 0 .06-3.42 6.036-7.602 13.282l-7.604 13.173-15.34.026-15.341.026z" fill="#bf958a"/><path d="m952.916 276.21-7.634-13.248 7.643-13.264 7.643-13.264 15.323.026 15.323.026 7.61 13.179c4.186 7.248 7.612 13.227 7.613 13.286 0 .06-3.419 6.037-7.601 13.282l-7.604 13.174-15.34.026-15.341.026-7.635-13.248z" fill="#747474"/><path d="m998.883 249.63-7.634-13.248 7.642-13.264 7.643-13.264 15.324.026 15.323.026 7.61 13.178c4.186 7.249 7.612 13.228 7.613 13.287 0 .06-3.419 6.036-7.601 13.282l-7.604 13.173-15.341.026-15.34.026z" fill="#bf958a"/><path d="m998.9 302.55-7.634-13.248 7.643-13.264 7.643-13.264 15.324.026 15.323.026 7.61 13.179c4.186 7.248 7.611 13.227 7.613 13.286 0 .06-3.42 6.036-7.601 13.282l-7.605 13.173-15.34.026-15.34.027-7.635-13.249z" fill="#747474"/><path d="m1044.833 276.074-7.634-13.248 7.643-13.264 7.642-13.264 15.324.026 15.323.026 7.61 13.179c4.186 7.248 7.612 13.227 7.613 13.286 0 .06-3.419 6.036-7.601 13.282l-7.604 13.173-15.341.026-15.34.027z" fill="#bf958a"/><path d="m1044.816 329.099-7.634-13.248 7.643-13.264 7.643-13.264 15.323.026 15.323.026 7.61 13.178c4.186 7.248 7.612 13.227 7.613 13.287 0 .06-3.419 6.036-7.601 13.281l-7.604 13.174-15.34.026-15.341.026z" fill="#747474"/><path d="m1090.765 249.598-7.634-13.248 7.643-13.264 7.643-13.264 15.323.026 15.323.026 7.61 13.179c4.186 7.248 7.612 13.227 7.613 13.286 0 .06-3.419 6.036-7.6 13.282l-7.605 13.173-15.34.026-15.341.027z" fill="#bf958a"/><path d="m1090.749 302.623-7.635-13.248 7.643-13.264 7.643-13.264 15.323.026 15.323.026 7.61 13.178c4.186 7.248 7.612 13.227 7.614 13.287 0 .06-3.42 6.036-7.602 13.281l-7.604 13.174-15.34.026-15.341.026z" fill="#747474"/><path d="m1090.766 355.543-7.634-13.248 7.643-13.264 7.642-13.264 15.324.026 15.323.026 7.61 13.179c4.186 7.248 7.612 13.227 7.613 13.286 0 .06-3.419 6.036-7.601 13.282l-7.604 13.173-15.34.026-15.341.026z" fill="#747474"/><path d="m585.416 806.132-7.635-13.248 7.643-13.265 7.643-13.264 15.323.026 15.324.027 7.61 13.178c4.185 7.248 7.611 13.227 7.613 13.287 0 .06-3.42 6.036-7.602 13.281l-7.604 13.174-15.34.026-15.34.026z" fill="#76b9da"/><path d="m539.484 832.608-7.635-13.248 7.643-13.264 7.643-13.265 15.323.027 15.323.026 7.61 13.178c4.186 7.248 7.612 13.227 7.614 13.287 0 .06-3.42 6.036-7.602 13.281l-7.604 13.174-15.34.026-15.341.026zm91.882-.032-7.635-13.248 7.643-13.264 7.643-13.264 15.323.026 15.323.026 7.61 13.178c4.186 7.249 7.612 13.228 7.614 13.287 0 .06-3.42 6.036-7.602 13.282l-7.604 13.173-15.34.026-15.34.026z" fill="#76b9da"/><path d="m723.248 832.544-7.635-13.248 7.643-13.264 7.643-13.264 15.323.026 15.324.026 7.61 13.179c4.186 7.248 7.611 13.227 7.613 13.286 0 .06-3.42 6.036-7.602 13.282l-7.604 13.173-15.34.026-15.34.027z" fill="#f4ea68"/><path d="m677.298 806.1-7.634-13.248 7.642-13.264 7.643-13.264 15.324.026 15.323.026 7.61 13.178c4.186 7.249 7.611 13.228 7.613 13.287 0 .06-3.42 6.036-7.601 13.282l-7.605 13.173-15.34.026-15.34.026z" fill="#76b9da"/><path d="m631.348 779.656-7.634-13.248 7.642-13.265 7.644-13.263 15.324.026 15.323.027 7.61 13.178c4.186 7.248 7.611 13.227 7.613 13.287 0 .06-3.42 6.036-7.601 13.281l-7.605 13.174-15.34.026-15.34.026-7.635-13.248z" fill="#76b9da"/><path d="m998.87 832.38-7.634-13.25 7.643-13.263 7.643-13.264 15.323.026 15.323.026 7.61 13.178c4.186 7.249 7.612 13.228 7.614 13.287 0 .06-3.42 6.036-7.602 13.282l-7.604 13.173-15.34.026-15.341.026-7.635-13.248zm91.865-52.953-7.634-13.248 7.642-13.264 7.643-13.264 15.324.026 15.323.026 7.61 13.178c4.186 7.249 7.611 13.228 7.613 13.287 0 .06-3.42 6.036-7.601 13.282l-7.605 13.173-15.34.026-15.34.026z" fill="#f4ea68"/><path d="m1044.803 805.903-7.635-13.248 7.643-13.264 7.643-13.264 15.323.026 15.324.026 7.61 13.178c4.185 7.249 7.611 13.228 7.613 13.287 0 .06-3.42 6.036-7.602 13.282l-7.604 13.173-15.34.026-15.34.026z" fill="#f4ea68"/><path d="m1090.787 832.243-7.634-13.248 7.643-13.264 7.643-13.264 15.323.026 15.323.026 7.61 13.178c4.186 7.249 7.612 13.227 7.613 13.287 0 .06-3.419 6.036-7.601 13.282l-7.604 13.173-15.34.026-15.341.026z" fill="#f4ea68"/><path d="m171.979 832.805-7.634-13.248 7.642-13.265 7.643-13.264 15.324.026 15.323.027 7.61 13.178c4.186 7.248 7.611 13.227 7.613 13.287 0 .06-3.42 6.036-7.601 13.281l-7.605 13.174-15.34.026-15.34.026z" fill="#c2e813"/><path d="m126.029 806.36-7.634-13.248 7.642-13.264 7.643-13.264 15.324.026 15.323.026 7.61 13.179c4.186 7.248 7.612 13.227 7.613 13.287 0 .059-3.42 6.036-7.601 13.281l-7.604 13.174-15.341.026-15.34.026-7.635-13.248zm413.438 79.272-7.635-13.248 7.643-13.264 7.643-13.264 15.323.026 15.323.026 7.61 13.179c4.186 7.248 7.612 13.227 7.614 13.286 0 .06-3.42 6.037-7.602 13.282l-7.604 13.174-15.34.026-15.34.026-7.635-13.248z" fill="#c2e813"/><path d="m493.534 912.109-7.634-13.249 7.643-13.264 7.643-13.264 15.323.026 15.323.026 7.61 13.179c4.186 7.248 7.612 13.227 7.613 13.286 0 .06-3.419 6.037-7.601 13.282l-7.604 13.174-15.34.026-15.341.026z" fill="#c2e813"/><path d="m447.602 938.585-7.634-13.249 7.643-13.264 7.642-13.264 15.324.026 15.323.026 7.61 13.179c4.186 7.248 7.612 13.227 7.613 13.287 0 .059-3.419 6.036-7.601 13.281l-7.604 13.174-15.341.026-15.34.026zm-183.764.063-7.635-13.248 7.643-13.264 7.643-13.264 15.323.026 15.324.026 7.61 13.178c4.185 7.249 7.611 13.228 7.613 13.287 0 .06-3.42 6.036-7.602 13.282l-7.604 13.173-15.34.026-15.34.026z" fill="#c2e813"/><path d="m217.888 912.204-7.635-13.248 7.643-13.264 7.643-13.264 15.323.026 15.324.026 7.61 13.178c4.185 7.248 7.611 13.227 7.613 13.287 0 .06-3.42 6.036-7.602 13.281l-7.604 13.174-15.34.026-15.34.026z" fill="#c2e813"/><path d="m171.938 885.76-7.635-13.249 7.643-13.264 7.643-13.264 15.323.026 15.324.026 7.61 13.18c4.186 7.247 7.611 13.226 7.613 13.286 0 .06-3.42 6.036-7.602 13.281l-7.604 13.174-15.34.026-15.34.026z" fill="#c2e813"/><path d="m125.988 859.315-7.635-13.248 7.643-13.264 7.643-13.264 15.324.026 15.323.026 7.61 13.179c4.186 7.248 7.611 13.227 7.613 13.286 0 .06-3.42 6.037-7.601 13.282l-7.605 13.173-15.34.027-15.34.026-7.635-13.248z" fill="#c2e813"/><path d="m401.67 859.116-7.635-13.249 7.642-13.264 7.643-13.264 15.324.026 15.323.026 7.61 13.179c4.186 7.248 7.612 13.227 7.613 13.287 0 .06-3.42 6.036-7.601 13.281l-7.604 13.174-15.341.026-15.34.026-7.635-13.248z" fill="#76b9da"/><path d="m217.87 859.284-7.634-13.249 7.643-13.264 7.642-13.264 15.324.026 15.323.026 7.61 13.179c4.186 7.248 7.612 13.227 7.613 13.287 0 .06-3.419 6.036-7.601 13.281l-7.604 13.174-15.34.026-15.341.026z" fill="#c2e813"/><path d="m263.855 885.624-7.635-13.249 7.643-13.264 7.643-13.264 15.323.026 15.323.026 7.61 13.179c4.186 7.248 7.612 13.227 7.614 13.286 0 .06-3.42 6.037-7.602 13.282l-7.604 13.174-15.34.026-15.34.026z" fill="#c2e813"/><path d="m309.787 859.147-7.635-13.248 7.643-13.264 7.643-13.264 15.323.026 15.324.026 7.61 13.179c4.186 7.248 7.611 13.227 7.613 13.286 0 .06-3.42 6.037-7.602 13.282l-7.604 13.174-15.34.026-15.34.026-7.635-13.248zm-.017 53.025-7.634-13.248 7.642-13.264 7.643-13.264 15.324.026 15.323.026 7.61 13.178c4.186 7.249 7.611 13.228 7.613 13.287 0 .06-3.42 6.036-7.601 13.282l-7.605 13.173-15.34.026-15.34.026z" fill="#c2e813"/><path d="m355.702 885.696-7.634-13.248 7.643-13.264 7.643-13.264 15.323.026 15.323.026 7.61 13.178c4.186 7.249 7.612 13.228 7.613 13.287 0 .06-3.419 6.036-7.601 13.282l-7.604 13.173-15.34.026-15.341.026z" fill="#c2e813"/><path d="m355.72 938.616-7.635-13.248 7.643-13.264 7.643-13.264 15.324.026 15.323.026 7.61 13.179c4.186 7.248 7.611 13.227 7.613 13.286 0 .06-3.42 6.036-7.601 13.282l-7.605 13.173-15.34.026-15.34.027zm45.967-26.58-7.635-13.248 7.643-13.264 7.643-13.264 15.323.026 15.324.026 7.61 13.178c4.185 7.249 7.611 13.227 7.613 13.287 0 .06-3.42 6.036-7.602 13.281l-7.604 13.174-15.34.026-15.34.026z" fill="#c2e813"/><path d="m447.619 885.56-7.634-13.248 7.642-13.264 7.643-13.264 15.324.026 15.323.026 7.61 13.178c4.186 7.248 7.611 13.227 7.613 13.287 0 .06-3.42 6.036-7.601 13.281l-7.604 13.174-15.341.026-15.34.026z" fill="#76b9da"/><path d="m493.517 859.188-7.635-13.248 7.643-13.264 7.643-13.264 15.323.026 15.323.026 7.61 13.179c4.186 7.248 7.612 13.227 7.614 13.286 0 .06-3.42 6.036-7.602 13.282l-7.604 13.173-15.34.026-15.34.026zm91.882-.032-7.635-13.248 7.643-13.264 7.643-13.264 15.323.026 15.324.026 7.61 13.179c4.186 7.248 7.611 13.227 7.613 13.286 0 .06-3.42 6.037-7.602 13.282l-7.604 13.173-15.34.027-15.34.026-7.635-13.248z" fill="#c2e813"/><path d="m1044.786 858.928-7.635-13.248 7.643-13.265 7.643-13.264 15.323.026 15.324.027 7.61 13.178c4.185 7.248 7.611 13.227 7.613 13.287 0 .06-3.42 6.036-7.602 13.281l-7.604 13.174-15.34.026-15.34.026z" fill="#f4ea68"/><path d="m998.854 885.404-7.635-13.248 7.643-13.265 7.643-13.264 15.323.026 15.323.027 7.61 13.178c4.186 7.248 7.612 13.227 7.614 13.287 0 .06-3.42 6.036-7.602 13.281l-7.604 13.174-15.34.026-15.341.026z" fill="#f4ea68"/><path d="m952.921 911.88-7.634-13.248 7.643-13.265 7.642-13.264 15.324.026 15.323.027 7.61 13.178c4.186 7.248 7.612 13.227 7.613 13.287 0 .06-3.419 6.036-7.601 13.281l-7.604 13.174-15.34.026-15.341.026z" fill="#f4ea68"/><path d="m906.989 938.356-7.634-13.248 7.642-13.264 7.643-13.265 15.324.027 15.323.026 7.61 13.178c4.186 7.248 7.611 13.227 7.613 13.287 0 .06-3.42 6.036-7.601 13.281l-7.605 13.174-15.34.026-15.34.026zm-91.882.032-7.635-13.249 7.643-13.264 7.643-13.264 15.323.026 15.324.026 7.61 13.179c4.185 7.248 7.611 13.227 7.613 13.287 0 .06-3.42 6.036-7.602 13.281l-7.604 13.174-15.34.026-15.34.026z" fill="#f4ea68"/><path d="m769.157 911.943-7.635-13.248 7.643-13.264 7.643-13.264 15.323.026 15.324.026 7.61 13.179c4.185 7.248 7.611 13.227 7.613 13.286 0 .06-3.42 6.036-7.602 13.282l-7.604 13.173-15.34.027-15.34.026-7.635-13.248z" fill="#f4ea68"/><path d="m723.207 885.5-7.635-13.249 7.643-13.264 7.643-13.264 15.323.026 15.324.026 7.61 13.179c4.185 7.248 7.611 13.227 7.613 13.286 0 .06-3.42 6.036-7.602 13.282l-7.604 13.173-15.34.026-15.34.026-7.635-13.248z" fill="#f4ea68"/><path d="m677.257 859.055-7.635-13.248 7.643-13.264 7.643-13.264 15.323.026 15.324.026 7.61 13.178c4.186 7.249 7.611 13.227 7.613 13.287 0 .06-3.42 6.036-7.601 13.281l-7.605 13.174-15.34.026-15.34.026zm91.917-.136-7.635-13.248 7.643-13.265 7.643-13.264 15.323.026 15.323.027 7.61 13.178c4.186 7.248 7.612 13.227 7.614 13.287 0 .06-3.42 6.036-7.602 13.281l-7.604 13.174-15.34.026-15.34.026zm45.915 26.548-7.634-13.248 7.642-13.264 7.643-13.264 15.324.026 15.323.026 7.61 13.179c4.186 7.248 7.612 13.227 7.613 13.286 0 .06-3.42 6.036-7.601 13.282l-7.604 13.173-15.341.027-15.34.026z" fill="#f4ea68"/><path d="m861.021 858.991-7.634-13.248 7.643-13.264 7.643-13.264 15.323.026 15.323.026 7.61 13.179c4.186 7.248 7.612 13.227 7.613 13.286 0 .06-3.419 6.036-7.601 13.282l-7.604 13.173-15.34.026-15.341.027z" fill="#f4ea68"/><path d="m861.039 911.912-7.634-13.249 7.642-13.264 7.643-13.264 15.324.026 15.323.026 7.61 13.179c4.186 7.248 7.611 13.227 7.613 13.287 0 .06-3.42 6.036-7.601 13.281l-7.605 13.174-15.34.026-15.34.026zm45.967-26.581-7.635-13.248 7.643-13.264 7.643-13.264 15.323.026 15.324.026 7.61 13.179c4.186 7.248 7.611 13.227 7.613 13.286 0 .06-3.42 6.036-7.602 13.282l-7.604 13.173-15.34.026-15.34.026z" fill="#f4ea68"/><path d="m952.938 858.855-7.634-13.248 7.643-13.264 7.642-13.264 15.324.026 15.323.026 7.61 13.179c4.186 7.248 7.612 13.227 7.613 13.286 0 .06-3.419 6.036-7.601 13.282l-7.604 13.173-15.341.026-15.34.026z" fill="#efdd19"/><path d="m585.358 912.111-7.635-13.248 7.643-13.264 7.643-13.264 15.323.026 15.324.026 7.61 13.179c4.185 7.248 7.611 13.227 7.613 13.286 0 .06-3.42 6.036-7.602 13.282l-7.604 13.173-15.34.027-15.34.026z" fill="#c2e813"/><path d="m539.426 938.587-7.635-13.248 7.643-13.264 7.643-13.264 15.323.026 15.323.026 7.61 13.179c4.186 7.248 7.612 13.227 7.614 13.286 0 .06-3.42 6.037-7.602 13.282l-7.604 13.173-15.34.027-15.341.026-7.634-13.248zm91.882-.031-7.635-13.249 7.643-13.264 7.643-13.264 15.323.026 15.324.026 7.61 13.179c4.185 7.248 7.611 13.227 7.613 13.287 0 .06-3.42 6.036-7.602 13.281l-7.604 13.174-15.34.026-15.34.026z" fill="#c2e813"/><path d="m723.19 938.524-7.635-13.248 7.643-13.265 7.643-13.264 15.323.026 15.324.027 7.61 13.178c4.186 7.248 7.611 13.227 7.613 13.287 0 .06-3.42 6.036-7.602 13.281l-7.604 13.174-15.34.026-15.34.026z" fill="#f4ea68"/><path d="m677.24 912.08-7.634-13.249 7.642-13.264 7.643-13.264 15.324.026 15.323.026 7.61 13.179c4.186 7.248 7.611 13.227 7.613 13.287 0 .059-3.42 6.036-7.601 13.281l-7.605 13.174-15.34.026-15.34.026z" fill="#c2e813"/><path d="m631.29 885.635-7.634-13.248 7.642-13.264 7.643-13.264 15.324.026 15.323.026 7.61 13.179c4.186 7.248 7.611 13.227 7.613 13.286 0 .06-3.42 6.036-7.601 13.282l-7.604 13.173-15.341.026-15.34.027z" fill="#c2e813"/><path d="m998.813 938.359-7.635-13.249 7.643-13.264 7.643-13.264 15.323.026 15.323.026 7.61 13.179c4.186 7.248 7.612 13.227 7.614 13.287 0 .06-3.42 6.036-7.602 13.281l-7.604 13.174-15.34.026-15.341.026zm91.864-52.952-7.635-13.249 7.643-13.264 7.643-13.264 15.324.026 15.323.026 7.61 13.179c4.186 7.248 7.612 13.227 7.613 13.287 0 .06-3.42 6.036-7.601 13.281l-7.604 13.174-15.341.026-15.34.026z" fill="#f4ea68"/><path d="m1044.745 911.883-7.635-13.249 7.643-13.264 7.643-13.264 15.323.026 15.324.026 7.61 13.179c4.185 7.248 7.611 13.227 7.613 13.287 0 .06-3.42 6.036-7.602 13.281l-7.604 13.174-15.34.026-15.34.026z" fill="#f4ea68"/><path d="m1090.73 938.223-7.635-13.249 7.643-13.264 7.643-13.264 15.323.026 15.323.026 7.61 13.179c4.186 7.248 7.612 13.227 7.613 13.286 0 .06-3.419 6.037-7.601 13.282l-7.604 13.174-15.34.026-15.341.026-7.635-13.248z" fill="#c0c0c0"/><path d="m171.921 938.784-7.634-13.248 7.642-13.264 7.643-13.264 15.324.026 15.323.026 7.61 13.179c4.186 7.248 7.611 13.227 7.613 13.286 0 .06-3.42 6.036-7.601 13.282l-7.605 13.173-15.34.026-15.34.027z" fill="#c2e813"/><path d="m125.971 912.34-7.634-13.248 7.642-13.264 7.643-13.264 15.324.026 15.323.026 7.61 13.178c4.186 7.249 7.612 13.228 7.613 13.287 0 .06-3.42 6.036-7.601 13.282l-7.604 13.173-15.341.026-15.34.026z" fill="#c0c0c0"/><path d="m493.517 965.133-7.634-13.248 7.643-13.264 7.643-13.264 15.323.026 15.323.026 7.61 13.178c4.186 7.249 7.612 13.228 7.614 13.287 0 .06-3.42 6.036-7.602 13.282l-7.604 13.173-15.34.026-15.341.026z" fill="#c2e813"/><path d="m447.585 991.61-7.634-13.249 7.643-13.264 7.643-13.264 15.323.026 15.323.026 7.61 13.179c4.186 7.248 7.612 13.227 7.613 13.286 0 .06-3.419 6.036-7.601 13.282l-7.604 13.173-15.34.026-15.341.026-7.635-13.248zm-183.765.063-7.634-13.248 7.643-13.265 7.643-13.264 15.323.026 15.324.027 7.61 13.178c4.186 7.248 7.611 13.227 7.613 13.287 0 .06-3.42 6.036-7.602 13.281l-7.604 13.174-15.34.026-15.34.026-7.635-13.248z" fill="#c0c0c0"/><path d="m217.87 965.229-7.634-13.249 7.643-13.264 7.643-13.264 15.324.026 15.323.026 7.61 13.179c4.186 7.248 7.611 13.227 7.613 13.287 0 .059-3.42 6.036-7.601 13.281l-7.605 13.174-15.34.026-15.34.026-7.635-13.248zm91.883-.032-7.634-13.248 7.643-13.265 7.642-13.264 15.324.026 15.323.027 7.61 13.178c4.186 7.248 7.612 13.227 7.613 13.287 0 .06-3.419 6.036-7.601 13.281l-7.604 13.174-15.341.026-15.34.026z" fill="#c2e813"/><path d="m355.703 991.641-7.634-13.248 7.642-13.264 7.643-13.264 15.324.026 15.323.026 7.61 13.178c4.186 7.249 7.612 13.228 7.613 13.287 0 .06-3.42 6.036-7.601 13.281l-7.604 13.174-15.341.026-15.34.026z" fill="#c0c0c0"/><path d="m401.67 965.06-7.635-13.248 7.643-13.264 7.643-13.264 15.323.026 15.324.026 7.61 13.179c4.186 7.248 7.611 13.227 7.613 13.287 0 .059-3.42 6.036-7.602 13.281l-7.604 13.174-15.34.026-15.34.026-7.635-13.248z" fill="#c2e813"/><path d="m952.904 964.904-7.634-13.248 7.643-13.264 7.643-13.264 15.323.026 15.323.026 7.61 13.179c4.186 7.248 7.612 13.227 7.613 13.286 0 .06-3.419 6.037-7.601 13.282l-7.604 13.173-15.34.027-15.341.026-7.635-13.248z" fill="#f4ea68"/><path d="m906.972 991.38-7.634-13.248 7.643-13.264 7.642-13.264 15.324.026 15.323.026 7.61 13.179c4.186 7.248 7.612 13.227 7.613 13.286 0 .06-3.419 6.037-7.601 13.282l-7.604 13.174-15.341.026-15.34.026zm-91.882.032-7.635-13.248 7.643-13.264 7.643-13.264 15.323.026 15.324.026 7.61 13.179c4.185 7.248 7.611 13.227 7.613 13.286 0 .06-3.42 6.036-7.602 13.282l-7.604 13.173-15.34.026-15.34.026z" fill="#c0c0c0"/><path d="m769.14 964.968-7.635-13.248 7.643-13.264 7.643-13.264 15.324.026 15.323.026 7.61 13.178c4.186 7.249 7.611 13.228 7.613 13.287 0 .06-3.42 6.036-7.601 13.282l-7.605 13.173-15.34.026-15.34.026zm91.882-.032-7.634-13.248 7.642-13.264 7.643-13.264 15.324.026 15.323.026 7.61 13.179c4.186 7.248 7.612 13.227 7.613 13.286 0 .06-3.419 6.036-7.601 13.282l-7.604 13.173-15.34.026-15.341.026z" fill="#f4ea68"/><path d="m585.34 965.136-7.634-13.248 7.643-13.264 7.643-13.264 15.323.026 15.324.026 7.61 13.178c4.186 7.249 7.611 13.228 7.613 13.287 0 .06-3.42 6.036-7.602 13.282l-7.604 13.173-15.34.026-15.34.026-7.635-13.248z" fill="#c2e813"/><path d="m539.409 991.612-7.635-13.248 7.643-13.264 7.643-13.264 15.323.026 15.323.026 7.61 13.178c4.186 7.249 7.612 13.228 7.614 13.287 0 .06-3.42 6.036-7.602 13.282l-7.604 13.173-15.34.026-15.34.026zm91.881-.032-7.634-13.248 7.643-13.264 7.643-13.264 15.323.026 15.324.026 7.61 13.179c4.185 7.248 7.611 13.227 7.613 13.286 0 .06-3.42 6.036-7.602 13.282l-7.604 13.173-15.34.026-15.34.026-7.635-13.248zm91.883-.032-7.634-13.248 7.642-13.264 7.643-13.264 15.324.026 15.323.026 7.61 13.179c4.186 7.248 7.611 13.227 7.613 13.286 0 .06-3.42 6.037-7.601 13.282l-7.604 13.173-15.341.026-15.34.026z" fill="#c0c0c0"/><path d="m677.223 965.104-7.634-13.248 7.642-13.264 7.643-13.264 15.324.026 15.323.026 7.61 13.179c4.186 7.248 7.612 13.227 7.613 13.286 0 .06-3.42 6.036-7.601 13.282l-7.604 13.173-15.341.026-15.34.026z" fill="#f4ea68"/><path d="m998.796 991.383-7.635-13.248 7.643-13.264 7.643-13.264 15.323.026 15.323.026 7.61 13.179c4.186 7.248 7.612 13.227 7.614 13.286 0 .06-3.42 6.036-7.602 13.282l-7.604 13.173-15.34.026-15.34.026zm-826.892.426-7.634-13.248 7.643-13.264 7.642-13.264 15.324.026 15.323.026 7.61 13.178c4.186 7.248 7.612 13.227 7.613 13.287 0 .06-3.419 6.036-7.601 13.281l-7.604 13.174-15.341.026-15.34.026zm-91.743-794.85-7.634-13.249 7.642-13.264 7.643-13.264 15.324.026 15.323.026 7.61 13.179c4.186 7.248 7.612 13.227 7.613 13.287 0 .059-3.42 6.036-7.601 13.281l-7.604 13.174-15.341.026-15.34.026zm.001 105.944-7.635-13.248 7.643-13.264 7.643-13.264 15.323.026 15.324.026 7.61 13.179c4.185 7.248 7.611 13.227 7.613 13.286 0 .06-3.42 6.037-7.602 13.282l-7.604 13.173-15.34.027-15.34.026-7.635-13.248zm-.034 106.05-7.634-13.249 7.642-13.264 7.643-13.264 15.324.026 15.323.026 7.61 13.179c4.186 7.248 7.612 13.227 7.613 13.287 0 .06-3.419 6.036-7.601 13.281l-7.604 13.174-15.341.026-15.34.026zm.042 105.962-7.634-13.248 7.643-13.264 7.643-13.264 15.323.026 15.323.026 7.61 13.178c4.186 7.249 7.612 13.228 7.614 13.287 0 .06-3.42 6.036-7.602 13.282l-7.604 13.173-15.34.026-15.341.026zm.018 105.893-7.634-13.248 7.643-13.265 7.643-13.264 15.323.026 15.323.027 7.61 13.178c4.186 7.248 7.612 13.227 7.614 13.287 0 .06-3.42 6.036-7.602 13.281l-7.604 13.174-15.34.026-15.341.026zm-.033 106.049-7.635-13.248 7.643-13.264 7.643-13.264 15.323.026 15.324.026 7.61 13.178c4.185 7.249 7.611 13.228 7.613 13.287 0 .06-3.42 6.036-7.602 13.282l-7.604 13.173-15.34.026-15.34.026zm-.117 106.014-7.634-13.248 7.642-13.264 7.643-13.264 15.324.026 15.323.026 7.61 13.179c4.186 7.248 7.611 13.227 7.613 13.286 0 .06-3.42 6.036-7.601 13.282l-7.605 13.173-15.34.026-15.34.026zm1056.746-610.01-7.635-13.248 7.643-13.264 7.643-13.264 15.324.026 15.323.026 7.61 13.179c4.186 7.248 7.611 13.227 7.613 13.286 0 .06-3.42 6.036-7.601 13.282l-7.605 13.173-15.34.026-15.34.027zm.001 105.945-7.635-13.248 7.643-13.264 7.643-13.264 15.323.026 15.324.026 7.61 13.179c4.185 7.248 7.611 13.227 7.613 13.286 0 .06-3.42 6.036-7.602 13.282l-7.604 13.173-15.34.026-15.34.026zm-.035 106.049-7.633-13.248 7.642-13.264 7.643-13.264 15.324.026 15.323.026 7.61 13.179c4.186 7.248 7.611 13.227 7.613 13.286 0 .06-3.42 6.037-7.601 13.282l-7.605 13.174-15.34.026-15.34.026-7.635-13.248zm.043 105.963-7.634-13.248 7.643-13.264 7.643-13.265 15.323.027 15.323.026 7.61 13.178c4.186 7.248 7.612 13.227 7.613 13.287 0 .06-3.419 6.036-7.601 13.281l-7.604 13.174-15.34.026-15.341.026zm.018 105.892-7.634-13.248 7.643-13.264 7.643-13.264 15.323.026 15.323.026 7.61 13.179c4.186 7.248 7.612 13.227 7.613 13.287 0 .059-3.419 6.036-7.601 13.281l-7.604 13.174-15.34.026-15.341.026-7.635-13.248zm-.033 106.05-7.635-13.248 7.643-13.264 7.643-13.265 15.323.027 15.323.026 7.61 13.178c4.186 7.248 7.612 13.227 7.614 13.287 0 .06-3.42 6.036-7.602 13.281l-7.604 13.174-15.34.026-15.341.026zm-.118 106.014-7.634-13.248 7.643-13.264 7.643-13.264 15.323.026 15.324.026 7.61 13.178c4.186 7.249 7.611 13.228 7.613 13.287 0 .06-3.42 6.036-7.602 13.282l-7.604 13.173-15.34.026-15.34.026-7.635-13.248z" fill="#c0c0c0"/></g><text font-family="TheMixCE" font-weight="400" letter-spacing="0" word-spacing="0" x="142.987" y="69.455"><tspan font-size="31" x="142.987" y="69.455">1</tspan></text><text font-family="TheMixCE" font-weight="400" letter-spacing="0" word-spacing="0" x="187.604" y="95.931"><tspan font-size="31" x="187.604" y="95.931">2</tspan></text><text font-family="TheMixCE" font-weight="400" letter-spacing="0" word-spacing="0" x="234.306" y="69.297"><tspan font-size="31" x="234.306" y="69.297">3</tspan></text><text font-family="TheMixCE" font-weight="400" letter-spacing="0" word-spacing="0" x="280.313" y="43.154"><tspan font-size="31" x="280.313" y="43.154">4</tspan></text><text font-family="TheMixCE" font-weight="400" letter-spacing="0" word-spacing="0" x="324.25" y="69.455"><tspan font-size="31" x="324.25" y="69.455">5</tspan></text><text font-family="TheMixCE" font-weight="400" letter-spacing="0" word-spacing="0" x="375.564" y="43.154"><tspan font-size="31" x="375.564" y="43.154">6</tspan></text><text font-family="TheMixCE" font-weight="400" letter-spacing="0" word-spacing="0" x="414.77" y="69.455"><tspan font-size="31" x="414.77" y="69.455">7</tspan></text><text font-family="TheMixCE" font-weight="400" letter-spacing="0" word-spacing="0" x="458.013" y="43.154"><tspan font-size="31" x="458.013" y="43.154">8</tspan></text><text font-family="TheMixCE" font-weight="400" letter-spacing="0" word-spacing="0" x="509.903" y="69.455"><tspan font-size="31" x="509.903" y="69.455">9</tspan></text><text font-family="TheMixCE" font-weight="400" letter-spacing="0" word-spacing="0" x="544.497" y="43.154"><tspan font-size="31" x="544.497" y="43.154">10</tspan></text><text font-family="TheMixCE" font-weight="400" letter-spacing="0" word-spacing="0" x="592.929" y="69.455"><tspan font-size="31" x="592.929" y="69.455">11</tspan></text><text font-family="TheMixCE" font-weight="400" letter-spacing="0" word-spacing="0" x="639.63" y="43.154"><tspan font-size="31" x="639.63" y="43.154">12</tspan></text><text font-family="TheMixCE" font-weight="400" letter-spacing="0" word-spacing="0" x="684.026" y="69.455"><tspan font-size="31" x="684.026" y="69.455">13</tspan></text><text font-family="TheMixCE" font-weight="400" letter-spacing="0" word-spacing="0" x="731.304" y="43.154"><tspan font-size="31" x="731.304" y="43.154">14</tspan></text><text font-family="TheMixCE" font-weight="400" letter-spacing="0" word-spacing="0" x="776.276" y="69.455"><tspan font-size="31" x="776.276" y="69.455">15</tspan></text><text font-family="TheMixCE" font-weight="400" letter-spacing="0" word-spacing="0" x="821.248" y="43.154"><tspan font-size="31" x="821.248" y="43.154">16</tspan></text><text font-family="TheMixCE" font-weight="400" letter-spacing="0" word-spacing="0" x="866.796" y="69.455"><tspan font-size="31" x="866.796" y="69.455">17</tspan></text><text font-family="TheMixCE" font-weight="400" letter-spacing="0" word-spacing="0" x="913.498" y="43.154"><tspan font-size="31" x="913.498" y="43.154">18</tspan></text><text font-family="TheMixCE" font-weight="400" letter-spacing="0" word-spacing="0" x="957.317" y="69.455"><tspan font-size="31" x="957.317" y="69.455">19</tspan></text><text font-family="TheMixCE" font-weight="400" letter-spacing="0" word-spacing="0" x="1005.172" y="43.154"><tspan font-size="31" x="1005.172" y="43.154">20</tspan></text><text font-family="TheMixCE" font-weight="400" letter-spacing="0" word-spacing="0" x="1054.18" y="69.455"><tspan font-size="31" x="1054.18" y="69.455">21</tspan></text><text font-family="TheMixCE" font-weight="400" letter-spacing="0" word-spacing="0" x="1095.116" y="95.931"><tspan font-size="31" x="1095.116" y="95.931">22</tspan></text><text font-family="TheMixCE" font-weight="400" letter-spacing="0" word-spacing="0" x="49.47" y="221.771"><tspan font-size="31" x="49.47" y="221.771">A</tspan></text><text font-family="TheMixCE" font-weight="400" letter-spacing="0" word-spacing="0" x="89.694" y="246.788"><tspan font-size="31" x="89.694" y="246.788">B</tspan></text><text font-family="TheMixCE" font-weight="400" letter-spacing="0" word-spacing="0" x="49.966" y="328.154"><tspan font-size="31" x="49.966" y="328.154">C</tspan></text><text font-family="TheMixCE" font-weight="400" letter-spacing="0" word-spacing="0" x="87.942" y="353.011"><tspan font-size="31" x="87.942" y="353.011">D</tspan></text><text font-family="TheMixCE" font-weight="400" letter-spacing="0" word-spacing="0" x="51.004" y="430.757"><tspan font-size="31" x="51.004" y="430.757">E</tspan></text><text font-family="TheMixCE" font-weight="400" letter-spacing="0" word-spacing="0" x="91.089" y="459.404"><tspan font-size="31" x="91.089" y="459.404">F</tspan></text><text font-family="TheMixCE" font-weight="400" letter-spacing="0" word-spacing="0" x="49.036" y="539.061"><tspan font-size="31" x="49.036" y="539.061">G</tspan></text><text font-family="TheMixCE" font-weight="400" letter-spacing="0" word-spacing="0" x="88.237" y="565.496"><tspan font-size="31" x="88.237" y="565.496">H</tspan></text><text font-family="TheMixCE" font-weight="400" letter-spacing="0" word-spacing="0" x="54.957" y="642.607"><tspan font-size="31" x="54.957" y="642.607">I</tspan></text><text font-family="TheMixCE" font-weight="400" letter-spacing="0" word-spacing="0" x="95.243" y="672.011"><tspan font-size="31" x="95.243" y="672.011">J</tspan></text><text font-family="TheMixCE" font-weight="400" letter-spacing="0" word-spacing="0" x="48.881" y="750.165"><tspan font-size="31" x="48.881" y="750.165">K</tspan></text><text font-family="TheMixCE" font-weight="400" letter-spacing="0" word-spacing="0" x="91.244" y="778.404"><tspan font-size="31" x="91.244" y="778.404">L</tspan></text><text font-family="TheMixCE" font-weight="400" letter-spacing="0" word-spacing="0" x="45.238" y="856.85"><tspan font-size="31" x="45.238" y="856.85">M</tspan></text><text font-family="TheMixCE" font-weight="400" letter-spacing="0" word-spacing="0" x="89.466" y="883.68"><tspan font-size="31" x="89.466" y="883.68">N</tspan></text><text font-family="TheMixCE" font-weight="400" letter-spacing="0" word-spacing="0" x="88.128" y="933.986"><tspan font-size="31" x="88.128" y="933.986">O</tspan></text><text font-family="TheMixCE" font-weight="400" letter-spacing="0" word-spacing="0" x="146.142" y="956.458"><tspan font-size="31" x="146.142" y="956.458">P</tspan></text><text font-family="TheMixCE" font-weight="400" letter-spacing="0" word-spacing="0" x="136.265" y="1013.781"><tspan font-size="31" x="136.265" y="1013.781">Q</tspan></text><text font-family="TheMixCE" font-weight="400" letter-spacing="0" word-spacing="0" x="229.219" y="1013.781"><tspan font-size="31" x="229.219" y="1013.781">R</tspan></text><text font-family="TheMixCE" font-weight="400" letter-spacing="0" word-spacing="0" x="329.559" y="1013.488"><tspan font-size="31" x="329.559" y="1013.488">S</tspan></text><text font-family="TheMixCE" font-weight="400" letter-spacing="0" word-spacing="0" x="422.057" y="1013.781"><tspan font-size="31" x="422.057" y="1013.781">T</tspan></text><text font-family="TheMixCE" font-weight="400" letter-spacing="0" word-spacing="0" x="506.857" y="1013.781"><tspan font-size="31" x="506.857" y="1013.781">U</tspan></text><text font-family="TheMixCE" font-weight="400" letter-spacing="0" word-spacing="0" x="592.473" y="1013.781"><tspan font-size="31" x="592.473" y="1013.781">V</tspan></text><text font-family="TheMixCE" font-weight="400" letter-spacing="0" word-spacing="0" x="684.203" y="1013.781"><tspan font-size="31" x="684.203" y="1013.781">W</tspan></text><text font-family="TheMixCE" font-weight="400" letter-spacing="0" word-spacing="0" x="780.826" y="1013.781"><tspan font-size="31" x="780.826" y="1013.781">X</tspan></text><text font-family="TheMixCE" font-weight="400" letter-spacing="0" word-spacing="0" x="877.042" y="1013.781"><tspan font-size="31" x="877.042" y="1013.781">Y</tspan></text></g><path clip-path="url(#d)" d="m-18.504 892.327h247.804v171.538h-247.804z" fill="url(#b)" transform="translate(0 -901.362)"/><path d="m114.57 918.3c.234 1.521-7.514 2.193-20.097 8.89-4.218 2.253-9.222 5.44-13.193 9.854a33.931 33.931 0 0 0 -7.118 12.315c-1.569 4.779-2.148 10.084-2.062 15.842.183 10.271 4.433 21.335 12.597 29.332 7.563 7.46 18.397 12.034 29.332 12.019 10.97.024 21.8-4.567 29.35-12.001 8.212-8.03 12.442-19.118 12.637-29.35.268-11.703-5.325-21.778-12-27.708-7.602-6.86-16.788-9.68-22.127-10.991-5.794-1.424-8.901-1.62-8.939-2.27-.023-.407 3.053-1.332 9.338-.87 5.829.429 16.02 2.338 25.487 9.586 8.325 6.47 15.659 17.918 15.926 32.253.098 6.114-1 12.48-3.35 18.568-2.35 6.087 6.551 24.148 1.643 29.147-4.547 4.605-22.543-3.942-28.586-1.385s-12.635 3.966-19.38 3.979c-13.446-.016-26.346-5.59-35.48-14.828-9.786-9.953-14.433-23.172-14.25-35.481.086-6.42 1.074-12.563 3.186-18.202a39.247 39.247 0 0 1 9.358-14.276c5.068-4.868 10.83-7.928 15.605-9.874 14.07-5.75 22.102-4.683 22.122-4.548z" filter="url(#e)" opacity=".887" transform="translate(0 -901.362)"/><path d="m112.57 916.3c.234 1.521-7.514 2.193-20.097 8.89-4.218 2.253-9.222 5.44-13.193 9.854a33.931 33.931 0 0 0 -7.118 12.315c-1.569 4.779-2.148 10.084-2.062 15.842.183 10.271 4.433 21.335 12.597 29.332 7.563 7.46 18.397 12.034 29.332 12.019 10.97.024 21.8-4.567 29.35-12.001 8.212-8.03 12.442-19.118 12.637-29.35.268-11.703-5.325-21.778-12-27.708-7.602-6.86-16.788-9.68-22.127-10.991-5.794-1.424-8.901-1.62-8.939-2.27-.023-.407 3.053-1.332 9.338-.87 5.829.429 16.02 2.338 25.487 9.586 8.325 6.47 15.659 17.918 15.926 32.253.098 6.114-1 12.48-3.35 18.568-2.35 6.087 6.551 24.148 1.643 29.147-4.547 4.605-22.543-3.942-28.586-1.385s-12.635 3.966-19.38 3.979c-13.446-.016-26.346-5.59-35.48-14.828-9.786-9.953-14.433-23.172-14.25-35.481.086-6.42 1.074-12.563 3.186-18.202a39.247 39.247 0 0 1 9.358-14.276c5.068-4.868 10.83-7.928 15.605-9.874 14.07-5.75 22.102-4.683 22.122-4.548z" fill="url(#a)" transform="translate(0 -901.362)"/></svg>